ISO-10303-21;
HEADER;
FILE_DESCRIPTION(('FreeCAD Model'),'2;1');
FILE_NAME('Open CASCADE Shape Model','2026-08-19T22:34:00',('Author'),(
    ''),'Open CASCADE STEP processor 7.8','FreeCAD','Unknown');
FILE_SCHEMA(('AUTOMOTIVE_DESIGN { 1 0 10303 214 1 1 1 1 }'));
ENDSEC;
DATA;
#1 = APPLICATION_PROTOCOL_DEFINITION('international standard',
  'automotive_design',2000,#2);
#2 = APPLICATION_CONTEXT(
  'core data for automotive mechanical design processes');
#3 = SHAPE_DEFINITION_REPRESENTATION(#4,#10);
#4 = PRODUCT_DEFINITION_SHAPE('','',#5);
#5 = PRODUCT_DEFINITION('design','',#6,#9);
#6 = PRODUCT_DEFINITION_FORMATION('','',#7);
#7 = PRODUCT('Coperchio','Coperchio','',(#8));
#8 = PRODUCT_CONTEXT('',#2,'mechanical');
#9 = PRODUCT_DEFINITION_CONTEXT('part definition',#2,'design');
#10 = ADVANCED_BREP_SHAPE_REPRESENTATION('',(#11,#15),#1450);
#11 = AXIS2_PLACEMENT_3D('',#12,#13,#14);
#12 = CARTESIAN_POINT('',(0.,0.,0.));
#13 = DIRECTION('',(0.,0.,1.));
#14 = DIRECTION('',(1.,0.,-0.));
#15 = MANIFOLD_SOLID_BREP('',#16);
#16 = CLOSED_SHELL('',(#17,#57,#88,#121,#561,#585,#602,#627,#795,#813,
    #835,#852,#869,#881,#912,#936,#960,#977,#999,#1016,#1033,#1045,#1073
    ,#1101,#1123,#1140,#1157,#1169,#1191,#1208,#1225,#1237,#1249,#1395,
    #1404,#1413,#1441));
#17 = ADVANCED_FACE('',(#18),#52,.F.);
#18 = FACE_BOUND('',#19,.F.);
#19 = EDGE_LOOP('',(#20,#30,#38,#46));
#20 = ORIENTED_EDGE('',*,*,#21,.F.);
#21 = EDGE_CURVE('',#22,#24,#26,.T.);
#22 = VERTEX_POINT('',#23);
#23 = CARTESIAN_POINT('',(-36.93,-23.,1.5));
#24 = VERTEX_POINT('',#25);
#25 = CARTESIAN_POINT('',(-36.93,-23.,2.5));
#26 = LINE('',#27,#28);
#27 = CARTESIAN_POINT('',(-36.93,-23.,0.));
#28 = VECTOR('',#29,1.);
#29 = DIRECTION('',(0.,0.,1.));
#30 = ORIENTED_EDGE('',*,*,#31,.T.);
#31 = EDGE_CURVE('',#22,#32,#34,.T.);
#32 = VERTEX_POINT('',#33);
#33 = CARTESIAN_POINT('',(-36.93,23.,1.5));
#34 = LINE('',#35,#36);
#35 = CARTESIAN_POINT('',(-36.93,-23.,1.5));
#36 = VECTOR('',#37,1.);
#37 = DIRECTION('',(-0.,1.,0.));
#38 = ORIENTED_EDGE('',*,*,#39,.T.);
#39 = EDGE_CURVE('',#32,#40,#42,.T.);
#40 = VERTEX_POINT('',#41);
#41 = CARTESIAN_POINT('',(-36.93,23.,2.5));
#42 = LINE('',#43,#44);
#43 = CARTESIAN_POINT('',(-36.93,23.,0.));
#44 = VECTOR('',#45,1.);
#45 = DIRECTION('',(0.,0.,1.));
#46 = ORIENTED_EDGE('',*,*,#47,.F.);
#47 = EDGE_CURVE('',#24,#40,#48,.T.);
#48 = LINE('',#49,#50);
#49 = CARTESIAN_POINT('',(-36.93,-23.,2.5));
#50 = VECTOR('',#51,1.);
#51 = DIRECTION('',(-0.,1.,0.));
#52 = PLANE('',#53);
#53 = AXIS2_PLACEMENT_3D('',#54,#55,#56);
#54 = CARTESIAN_POINT('',(-36.93,-23.,0.));
#55 = DIRECTION('',(1.,0.,-0.));
#56 = DIRECTION('',(0.,0.,1.));
#57 = ADVANCED_FACE('',(#58),#83,.F.);
#58 = FACE_BOUND('',#59,.F.);
#59 = EDGE_LOOP('',(#60,#70,#76,#77));
#60 = ORIENTED_EDGE('',*,*,#61,.F.);
#61 = EDGE_CURVE('',#62,#64,#66,.T.);
#62 = VERTEX_POINT('',#63);
#63 = CARTESIAN_POINT('',(36.93,-23.,1.5));
#64 = VERTEX_POINT('',#65);
#65 = CARTESIAN_POINT('',(36.93,-23.,2.5));
#66 = LINE('',#67,#68);
#67 = CARTESIAN_POINT('',(36.93,-23.,0.));
#68 = VECTOR('',#69,1.);
#69 = DIRECTION('',(0.,0.,1.));
#70 = ORIENTED_EDGE('',*,*,#71,.F.);
#71 = EDGE_CURVE('',#22,#62,#72,.T.);
#72 = LINE('',#73,#74);
#73 = CARTESIAN_POINT('',(-36.93,-23.,1.5));
#74 = VECTOR('',#75,1.);
#75 = DIRECTION('',(1.,0.,-0.));
#76 = ORIENTED_EDGE('',*,*,#21,.T.);
#77 = ORIENTED_EDGE('',*,*,#78,.T.);
#78 = EDGE_CURVE('',#24,#64,#79,.T.);
#79 = LINE('',#80,#81);
#80 = CARTESIAN_POINT('',(-36.93,-23.,2.5));
#81 = VECTOR('',#82,1.);
#82 = DIRECTION('',(1.,0.,-0.));
#83 = PLANE('',#84);
#84 = AXIS2_PLACEMENT_3D('',#85,#86,#87);
#85 = CARTESIAN_POINT('',(-36.93,-23.,0.));
#86 = DIRECTION('',(-0.,1.,0.));
#87 = DIRECTION('',(0.,0.,1.));
#88 = ADVANCED_FACE('',(#89),#116,.T.);
#89 = FACE_BOUND('',#90,.F.);
#90 = EDGE_LOOP('',(#91,#100,#108,#115));
#91 = ORIENTED_EDGE('',*,*,#92,.T.);
#92 = EDGE_CURVE('',#22,#93,#95,.T.);
#93 = VERTEX_POINT('',#94);
#94 = CARTESIAN_POINT('',(-35.43,-21.5,-2.22044604925E-16));
#95 = ELLIPSE('',#96,2.12132034356,1.5);
#96 = AXIS2_PLACEMENT_3D('',#97,#98,#99);
#97 = CARTESIAN_POINT('',(-35.43,-21.5,1.5));
#98 = DIRECTION('',(0.707106781187,-0.707106781187,-0.));
#99 = DIRECTION('',(0.707106781187,0.707106781187,0.));
#100 = ORIENTED_EDGE('',*,*,#101,.T.);
#101 = EDGE_CURVE('',#93,#102,#104,.T.);
#102 = VERTEX_POINT('',#103);
#103 = CARTESIAN_POINT('',(-35.43,21.5,-2.22044604925E-16));
#104 = LINE('',#105,#106);
#105 = CARTESIAN_POINT('',(-35.43,-23.,-2.22044604925E-16));
#106 = VECTOR('',#107,1.);
#107 = DIRECTION('',(-0.,1.,0.));
#108 = ORIENTED_EDGE('',*,*,#109,.F.);
#109 = EDGE_CURVE('',#32,#102,#110,.T.);
#110 = ELLIPSE('',#111,2.12132034356,1.5);
#111 = AXIS2_PLACEMENT_3D('',#112,#113,#114);
#112 = CARTESIAN_POINT('',(-35.43,21.5,1.5));
#113 = DIRECTION('',(-0.707106781187,-0.707106781187,-0.));
#114 = DIRECTION('',(-0.707106781187,0.707106781187,0.));
#115 = ORIENTED_EDGE('',*,*,#31,.F.);
#116 = CYLINDRICAL_SURFACE('',#117,1.5);
#117 = AXIS2_PLACEMENT_3D('',#118,#119,#120);
#118 = CARTESIAN_POINT('',(-35.43,-23.,1.5));
#119 = DIRECTION('',(-0.,1.,0.));
#120 = DIRECTION('',(-1.,-0.,0.));
#121 = ADVANCED_FACE('',(#122,#140,#176,#210,#246,#365,#484,#520),#556,
  .T.);
#122 = FACE_BOUND('',#123,.T.);
#123 = EDGE_LOOP('',(#124,#125,#126,#134));
#124 = ORIENTED_EDGE('',*,*,#47,.F.);
#125 = ORIENTED_EDGE('',*,*,#78,.T.);
#126 = ORIENTED_EDGE('',*,*,#127,.T.);
#127 = EDGE_CURVE('',#64,#128,#130,.T.);
#128 = VERTEX_POINT('',#129);
#129 = CARTESIAN_POINT('',(36.93,23.,2.5));
#130 = LINE('',#131,#132);
#131 = CARTESIAN_POINT('',(36.93,-23.,2.5));
#132 = VECTOR('',#133,1.);
#133 = DIRECTION('',(-0.,1.,0.));
#134 = ORIENTED_EDGE('',*,*,#135,.F.);
#135 = EDGE_CURVE('',#40,#128,#136,.T.);
#136 = LINE('',#137,#138);
#137 = CARTESIAN_POINT('',(-36.93,23.,2.5));
#138 = VECTOR('',#139,1.);
#139 = DIRECTION('',(1.,0.,-0.));
#140 = FACE_BOUND('',#141,.T.);
#141 = EDGE_LOOP('',(#142,#153,#161,#170));
#142 = ORIENTED_EDGE('',*,*,#143,.F.);
#143 = EDGE_CURVE('',#144,#146,#148,.T.);
#144 = VERTEX_POINT('',#145);
#145 = CARTESIAN_POINT('',(-34.01652243243,-17.09984648648,2.5));
#146 = VERTEX_POINT('',#147);
#147 = CARTESIAN_POINT('',(-32.0682154054,-17.09984648648,2.5));
#148 = CIRCLE('',#149,0.974153513514);
#149 = AXIS2_PLACEMENT_3D('',#150,#151,#152);
#150 = CARTESIAN_POINT('',(-33.04236891891,-17.09984648648,2.5));
#151 = DIRECTION('',(0.,0.,1.));
#152 = DIRECTION('',(1.,0.,-0.));
#153 = ORIENTED_EDGE('',*,*,#154,.T.);
#154 = EDGE_CURVE('',#144,#155,#157,.T.);
#155 = VERTEX_POINT('',#156);
#156 = CARTESIAN_POINT('',(-34.01652243243,-15.75715351351,2.5));
#157 = LINE('',#158,#159);
#158 = CARTESIAN_POINT('',(-34.01652243243,-20.04992324324,2.5));
#159 = VECTOR('',#160,1.);
#160 = DIRECTION('',(-0.,1.,0.));
#161 = ORIENTED_EDGE('',*,*,#162,.F.);
#162 = EDGE_CURVE('',#163,#155,#165,.T.);
#163 = VERTEX_POINT('',#164);
#164 = CARTESIAN_POINT('',(-32.0682154054,-15.75715351351,2.5));
#165 = CIRCLE('',#166,0.974153513514);
#166 = AXIS2_PLACEMENT_3D('',#167,#168,#169);
#167 = CARTESIAN_POINT('',(-33.04236891891,-15.75715351351,2.5));
#168 = DIRECTION('',(0.,0.,1.));
#169 = DIRECTION('',(1.,0.,-0.));
#170 = ORIENTED_EDGE('',*,*,#171,.F.);
#171 = EDGE_CURVE('',#146,#163,#172,.T.);
#172 = LINE('',#173,#174);
#173 = CARTESIAN_POINT('',(-32.0682154054,-20.04992324324,2.5));
#174 = VECTOR('',#175,1.);
#175 = DIRECTION('',(-0.,1.,0.));
#176 = FACE_BOUND('',#177,.T.);
#177 = EDGE_LOOP('',(#178,#188,#196,#204));
#178 = ORIENTED_EDGE('',*,*,#179,.T.);
#179 = EDGE_CURVE('',#180,#182,#184,.T.);
#180 = VERTEX_POINT('',#181);
#181 = CARTESIAN_POINT('',(-15.23112972973,-17.067,2.5));
#182 = VERTEX_POINT('',#183);
#183 = CARTESIAN_POINT('',(-27.23837027027,-17.067,2.5));
#184 = LINE('',#185,#186);
#185 = CARTESIAN_POINT('',(-32.08418513513,-17.067,2.5));
#186 = VECTOR('',#187,1.);
#187 = DIRECTION('',(-1.,-0.,0.));
#188 = ORIENTED_EDGE('',*,*,#189,.T.);
#189 = EDGE_CURVE('',#182,#190,#192,.T.);
#190 = VERTEX_POINT('',#191);
#191 = CARTESIAN_POINT('',(-27.23837027027,-4.202,2.5));
#192 = LINE('',#193,#194);
#193 = CARTESIAN_POINT('',(-27.23837027027,-20.0335,2.5));
#194 = VECTOR('',#195,1.);
#195 = DIRECTION('',(-0.,1.,0.));
#196 = ORIENTED_EDGE('',*,*,#197,.F.);
#197 = EDGE_CURVE('',#198,#190,#200,.T.);
#198 = VERTEX_POINT('',#199);
#199 = CARTESIAN_POINT('',(-15.23112972973,-4.202,2.5));
#200 = LINE('',#201,#202);
#201 = CARTESIAN_POINT('',(-32.08418513513,-4.202,2.5));
#202 = VECTOR('',#203,1.);
#203 = DIRECTION('',(-1.,-0.,0.));
#204 = ORIENTED_EDGE('',*,*,#205,.F.);
#205 = EDGE_CURVE('',#180,#198,#206,.T.);
#206 = LINE('',#207,#208);
#207 = CARTESIAN_POINT('',(-15.23112972973,-20.0335,2.5));
#208 = VECTOR('',#209,1.);
#209 = DIRECTION('',(-0.,1.,0.));
#210 = FACE_BOUND('',#211,.T.);
#211 = EDGE_LOOP('',(#212,#223,#231,#240));
#212 = ORIENTED_EDGE('',*,*,#213,.F.);
#213 = EDGE_CURVE('',#214,#216,#218,.T.);
#214 = VERTEX_POINT('',#215);
#215 = CARTESIAN_POINT('',(32.068215405405,-17.09984648648,2.5));
#216 = VERTEX_POINT('',#217);
#217 = CARTESIAN_POINT('',(34.016522432432,-17.09984648648,2.5));
#218 = CIRCLE('',#219,0.974153513514);
#219 = AXIS2_PLACEMENT_3D('',#220,#221,#222);
#220 = CARTESIAN_POINT('',(33.042368918919,-17.09984648648,2.5));
#221 = DIRECTION('',(0.,0.,1.));
#222 = DIRECTION('',(1.,0.,-0.));
#223 = ORIENTED_EDGE('',*,*,#224,.T.);
#224 = EDGE_CURVE('',#214,#225,#227,.T.);
#225 = VERTEX_POINT('',#226);
#226 = CARTESIAN_POINT('',(32.068215405405,-15.75715351351,2.5));
#227 = LINE('',#228,#229);
#228 = CARTESIAN_POINT('',(32.068215405405,-20.04992324324,2.5));
#229 = VECTOR('',#230,1.);
#230 = DIRECTION('',(-0.,1.,0.));
#231 = ORIENTED_EDGE('',*,*,#232,.F.);
#232 = EDGE_CURVE('',#233,#225,#235,.T.);
#233 = VERTEX_POINT('',#234);
#234 = CARTESIAN_POINT('',(34.016522432432,-15.75715351351,2.5));
#235 = CIRCLE('',#236,0.974153513514);
#236 = AXIS2_PLACEMENT_3D('',#237,#238,#239);
#237 = CARTESIAN_POINT('',(33.042368918919,-15.75715351351,2.5));
#238 = DIRECTION('',(0.,0.,1.));
#239 = DIRECTION('',(1.,0.,-0.));
#240 = ORIENTED_EDGE('',*,*,#241,.F.);
#241 = EDGE_CURVE('',#216,#233,#242,.T.);
#242 = LINE('',#243,#244);
#243 = CARTESIAN_POINT('',(34.016522432432,-20.04992324324,2.5));
#244 = VECTOR('',#245,1.);
#245 = DIRECTION('',(-0.,1.,0.));
#246 = FACE_BOUND('',#247,.T.);
#247 = EDGE_LOOP('',(#248));
#248 = ORIENTED_EDGE('',*,*,#249,.F.);
#249 = EDGE_CURVE('',#250,#250,#252,.T.);
#250 = VERTEX_POINT('',#251);
#251 = CARTESIAN_POINT('',(23.08125,-2.223,2.5));
#252 = B_SPLINE_CURVE_WITH_KNOTS('',6,(#253,#254,#255,#256,#257,#258,
    #259,#260,#261,#262,#263,#264,#265,#266,#267,#268,#269,#270,#271,
    #272,#273,#274,#275,#276,#277,#278,#279,#280,#281,#282,#283,#284,
    #285,#286,#287,#288,#289,#290,#291,#292,#293,#294,#295,#296,#297,
    #298,#299,#300,#301,#302,#303,#304,#305,#306,#307,#308,#309,#310,
    #311,#312,#313,#314,#315,#316,#317,#318,#319,#320,#321,#322,#323,
    #324,#325,#326,#327,#328,#329,#330,#331,#332,#333,#334,#335,#336,
    #337,#338,#339,#340,#341,#342,#343,#344,#345,#346,#347,#348,#349,
    #350,#351,#352,#353,#354,#355,#356,#357,#358,#359,#360,#361,#362,
    #363,#364),.UNSPECIFIED.,.T.,.F.,(7,5,5,5,5,5,5,5,5,5,5,5,5,5,5,5,5,
    5,5,5,5,5,7),(0.,7.744155581934E-02,0.118149592848,0.160347699249,
    0.18771919778,0.249997311096,0.312275424411,0.339646922942,
    0.381845029343,0.422553066372,0.447165831347,0.5,0.552834168653,
    0.577446933628,0.618154970657,0.660353077057,0.687724575589,
    0.750002688904,0.81228080222,0.839652300751,0.881850407152,
    0.922558444181,1.),.UNSPECIFIED.);
#253 = CARTESIAN_POINT('',(23.08125,-2.223,2.5));
#254 = CARTESIAN_POINT('',(22.966044995654,-2.223,2.5));
#255 = CARTESIAN_POINT('',(22.850815664132,-2.23530008039,2.5));
#256 = CARTESIAN_POINT('',(22.737191469392,-2.259909152652,2.5));
#257 = CARTESIAN_POINT('',(22.62669623912,-2.29644389562,2.5));
#258 = CARTESIAN_POINT('',(22.520728969243,-2.344251708357,2.5));
#259 = CARTESIAN_POINT('',(22.367861213765,-2.432960675208,2.5));
#260 = CARTESIAN_POINT('',(22.316777621723,-2.466385870718,2.5));
#261 = CARTESIAN_POINT('',(22.267454799189,-2.502541316742,2.5));
#262 = CARTESIAN_POINT('',(22.220048976607,-2.541282176905,2.5));
#263 = CARTESIAN_POINT('',(22.174699446647,-2.582452461416,2.5));
#264 = CARTESIAN_POINT('',(22.08677976917,-2.670913720542,2.5));
#265 = CARTESIAN_POINT('',(22.04437153857,-2.718374155605,2.5));
#266 = CARTESIAN_POINT('',(22.00444186994,-2.768087201043,2.5));
#267 = CARTESIAN_POINT('',(21.967107649491,-2.819863522597,2.5));
#268 = CARTESIAN_POINT('',(21.932467843256,-2.873509146136,2.5));
#269 = CARTESIAN_POINT('',(21.879938311957,-2.96471003295,2.5));
#270 = CARTESIAN_POINT('',(21.860439640922,-3.00129624829,2.5));
#271 = CARTESIAN_POINT('',(21.842132001169,-3.038533059287,2.5));
#272 = CARTESIAN_POINT('',(21.825035205348,-3.076366804474,2.5));
#273 = CARTESIAN_POINT('',(21.80916642028,-3.114743660207,2.5));
#274 = CARTESIAN_POINT('',(21.761261190259,-3.242041040679,2.5));
#275 = CARTESIAN_POINT('',(21.734415417218,-3.333003862876,2.5));
#276 = CARTESIAN_POINT('',(21.714173730335,-3.425864813287,2.5));
#277 = CARTESIAN_POINT('',(21.700644598111,-3.519989463453,2.5));
#278 = CARTESIAN_POINT('',(21.69387972973,-3.614744504298,2.5));
#279 = CARTESIAN_POINT('',(21.69387972973,-3.804255495702,2.5));
#280 = CARTESIAN_POINT('',(21.700644598111,-3.899010536547,2.5));
#281 = CARTESIAN_POINT('',(21.714173730335,-3.993135186713,2.5));
#282 = CARTESIAN_POINT('',(21.734415417218,-4.085996137124,2.5));
#283 = CARTESIAN_POINT('',(21.761261190259,-4.17695895932,2.5));
#284 = CARTESIAN_POINT('',(21.80916642028,-4.304256339793,2.5));
#285 = CARTESIAN_POINT('',(21.825035205348,-4.342633195526,2.5));
#286 = CARTESIAN_POINT('',(21.842132001169,-4.380466940713,2.5));
#287 = CARTESIAN_POINT('',(21.860439640922,-4.41770375171,2.5));
#288 = CARTESIAN_POINT('',(21.879938311957,-4.45428996705,2.5));
#289 = CARTESIAN_POINT('',(21.932467843255,-4.545490853864,2.5));
#290 = CARTESIAN_POINT('',(21.967107649491,-4.599136477403,2.5));
#291 = CARTESIAN_POINT('',(22.00444186994,-4.650912798957,2.5));
#292 = CARTESIAN_POINT('',(22.04437153857,-4.700625844395,2.5));
#293 = CARTESIAN_POINT('',(22.08677976917,-4.748086279458,2.5));
#294 = CARTESIAN_POINT('',(22.174699446646,-4.836547538583,2.5));
#295 = CARTESIAN_POINT('',(22.220048976607,-4.877717823094,2.5));
#296 = CARTESIAN_POINT('',(22.267454799188,-4.916458683258,2.5));
#297 = CARTESIAN_POINT('',(22.316777621722,-4.952614129282,2.5));
#298 = CARTESIAN_POINT('',(22.367861213765,-4.986039324792,2.5));
#299 = CARTESIAN_POINT('',(22.452376480788,-5.035083428287,2.5));
#300 = CARTESIAN_POINT('',(22.484801841436,-5.05251753639,2.5));
#301 = CARTESIAN_POINT('',(22.51776890442,-5.068877068317,2.5));
#302 = CARTESIAN_POINT('',(22.551237235755,-5.084135522008,2.5));
#303 = CARTESIAN_POINT('',(22.585164419662,-5.098268844437,2.5));
#304 = CARTESIAN_POINT('',(22.69322438901,-5.139132654557,2.5));
#305 = CARTESIAN_POINT('',(22.768857074067,-5.161727523488,2.5));
#306 = CARTESIAN_POINT('',(22.845957619986,-5.178824842651,2.5));
#307 = CARTESIAN_POINT('',(22.924054062483,-5.190274966429,2.5));
#308 = CARTESIAN_POINT('',(23.002654062172,-5.196,2.5));
#309 = CARTESIAN_POINT('',(23.159845937828,-5.196,2.5));
#310 = CARTESIAN_POINT('',(23.238445937517,-5.190274966429,2.5));
#311 = CARTESIAN_POINT('',(23.316542380014,-5.178824842651,2.5));
#312 = CARTESIAN_POINT('',(23.393642925932,-5.161727523488,2.5));
#313 = CARTESIAN_POINT('',(23.469275610989,-5.139132654557,2.5));
#314 = CARTESIAN_POINT('',(23.577335580338,-5.098268844437,2.5));
#315 = CARTESIAN_POINT('',(23.611262764245,-5.084135522008,2.5));
#316 = CARTESIAN_POINT('',(23.64473109558,-5.068877068317,2.5));
#317 = CARTESIAN_POINT('',(23.677698158564,-5.05251753639,2.5));
#318 = CARTESIAN_POINT('',(23.710123519212,-5.035083428287,2.5));
#319 = CARTESIAN_POINT('',(23.794638786235,-4.986039324792,2.5));
#320 = CARTESIAN_POINT('',(23.845722378277,-4.952614129282,2.5));
#321 = CARTESIAN_POINT('',(23.895045200811,-4.916458683258,2.5));
#322 = CARTESIAN_POINT('',(23.942451023393,-4.877717823095,2.5));
#323 = CARTESIAN_POINT('',(23.987800553353,-4.836547538584,2.5));
#324 = CARTESIAN_POINT('',(24.07572023083,-4.748086279458,2.5));
#325 = CARTESIAN_POINT('',(24.118128461429,-4.700625844395,2.5));
#326 = CARTESIAN_POINT('',(24.15805813006,-4.650912798957,2.5));
#327 = CARTESIAN_POINT('',(24.195392350509,-4.599136477403,2.5));
#328 = CARTESIAN_POINT('',(24.230032156744,-4.545490853864,2.5));
#329 = CARTESIAN_POINT('',(24.282561688043,-4.45428996705,2.5));
#330 = CARTESIAN_POINT('',(24.302060359078,-4.417703751711,2.5));
#331 = CARTESIAN_POINT('',(24.320367998831,-4.380466940713,2.5));
#332 = CARTESIAN_POINT('',(24.337464794652,-4.342633195526,2.5));
#333 = CARTESIAN_POINT('',(24.35333357972,-4.304256339793,2.5));
#334 = CARTESIAN_POINT('',(24.401238809741,-4.176958959321,2.5));
#335 = CARTESIAN_POINT('',(24.428084582782,-4.085996137124,2.5));
#336 = CARTESIAN_POINT('',(24.448326269665,-3.993135186714,2.5));
#337 = CARTESIAN_POINT('',(24.461855401889,-3.899010536547,2.5));
#338 = CARTESIAN_POINT('',(24.46862027027,-3.804255495702,2.5));
#339 = CARTESIAN_POINT('',(24.46862027027,-3.614744504299,2.5));
#340 = CARTESIAN_POINT('',(24.461855401889,-3.519989463453,2.5));
#341 = CARTESIAN_POINT('',(24.448326269665,-3.425864813287,2.5));
#342 = CARTESIAN_POINT('',(24.428084582782,-3.333003862876,2.5));
#343 = CARTESIAN_POINT('',(24.401238809741,-3.24204104068,2.5));
#344 = CARTESIAN_POINT('',(24.35333357972,-3.114743660207,2.5));
#345 = CARTESIAN_POINT('',(24.337464794652,-3.076366804474,2.5));
#346 = CARTESIAN_POINT('',(24.320367998831,-3.038533059287,2.5));
#347 = CARTESIAN_POINT('',(24.302060359078,-3.00129624829,2.5));
#348 = CARTESIAN_POINT('',(24.282561688043,-2.96471003295,2.5));
#349 = CARTESIAN_POINT('',(24.230032156745,-2.873509146136,2.5));
#350 = CARTESIAN_POINT('',(24.195392350509,-2.819863522597,2.5));
#351 = CARTESIAN_POINT('',(24.15805813006,-2.768087201043,2.5));
#352 = CARTESIAN_POINT('',(24.11812846143,-2.718374155605,2.5));
#353 = CARTESIAN_POINT('',(24.07572023083,-2.670913720542,2.5));
#354 = CARTESIAN_POINT('',(23.987800553354,-2.582452461417,2.5));
#355 = CARTESIAN_POINT('',(23.942451023393,-2.541282176906,2.5));
#356 = CARTESIAN_POINT('',(23.895045200812,-2.502541316742,2.5));
#357 = CARTESIAN_POINT('',(23.845722378278,-2.466385870718,2.5));
#358 = CARTESIAN_POINT('',(23.794638786235,-2.432960675208,2.5));
#359 = CARTESIAN_POINT('',(23.641771030758,-2.344251708357,2.5));
#360 = CARTESIAN_POINT('',(23.53580376088,-2.29644389562,2.5));
#361 = CARTESIAN_POINT('',(23.425308530608,-2.259909152652,2.5));
#362 = CARTESIAN_POINT('',(23.311684335868,-2.23530008039,2.5));
#363 = CARTESIAN_POINT('',(23.196455004346,-2.223,2.5));
#364 = CARTESIAN_POINT('',(23.08125,-2.223,2.5));
#365 = FACE_BOUND('',#366,.T.);
#366 = EDGE_LOOP('',(#367));
#367 = ORIENTED_EDGE('',*,*,#368,.F.);
#368 = EDGE_CURVE('',#369,#369,#371,.T.);
#369 = VERTEX_POINT('',#370);
#370 = CARTESIAN_POINT('',(27.6975,-2.223,2.5));
#371 = B_SPLINE_CURVE_WITH_KNOTS('',6,(#372,#373,#374,#375,#376,#377,
    #378,#379,#380,#381,#382,#383,#384,#385,#386,#387,#388,#389,#390,
    #391,#392,#393,#394,#395,#396,#397,#398,#399,#400,#401,#402,#403,
    #404,#405,#406,#407,#408,#409,#410,#411,#412,#413,#414,#415,#416,
    #417,#418,#419,#420,#421,#422,#423,#424,#425,#426,#427,#428,#429,
    #430,#431,#432,#433,#434,#435,#436,#437,#438,#439,#440,#441,#442,
    #443,#444,#445,#446,#447,#448,#449,#450,#451,#452,#453,#454,#455,
    #456,#457,#458,#459,#460,#461,#462,#463,#464,#465,#466,#467,#468,
    #469,#470,#471,#472,#473,#474,#475,#476,#477,#478,#479,#480,#481,
    #482,#483),.UNSPECIFIED.,.T.,.F.,(7,5,5,5,5,5,5,5,5,5,5,5,5,5,5,5,5,
    5,5,5,5,5,7),(0.,7.744155581917E-02,0.118149592848,0.160347699249,
    0.18771919778,0.249997311096,0.312275424411,0.339646922942,
    0.381845029343,0.422553066372,0.447165831347,0.5,0.552834168653,
    0.577446933628,0.618154970657,0.660353077058,0.687724575589,
    0.750002688904,0.81228080222,0.839652300751,0.881850407152,
    0.922558444181,1.),.UNSPECIFIED.);
#372 = CARTESIAN_POINT('',(27.6975,-2.223,2.5));
#373 = CARTESIAN_POINT('',(27.582294995654,-2.223,2.5));
#374 = CARTESIAN_POINT('',(27.467065664133,-2.23530008039,2.5));
#375 = CARTESIAN_POINT('',(27.353441469391,-2.259909152652,2.5));
#376 = CARTESIAN_POINT('',(27.242946239121,-2.29644389562,2.5));
#377 = CARTESIAN_POINT('',(27.136978969242,-2.344251708357,2.5));
#378 = CARTESIAN_POINT('',(26.984111213765,-2.432960675208,2.5));
#379 = CARTESIAN_POINT('',(26.933027621723,-2.466385870718,2.5));
#380 = CARTESIAN_POINT('',(26.883704799189,-2.502541316742,2.5));
#381 = CARTESIAN_POINT('',(26.836298976607,-2.541282176905,2.5));
#382 = CARTESIAN_POINT('',(26.790949446647,-2.582452461416,2.5));
#383 = CARTESIAN_POINT('',(26.70302976917,-2.670913720542,2.5));
#384 = CARTESIAN_POINT('',(26.66062153857,-2.718374155605,2.5));
#385 = CARTESIAN_POINT('',(26.62069186994,-2.768087201043,2.5));
#386 = CARTESIAN_POINT('',(26.583357649491,-2.819863522597,2.5));
#387 = CARTESIAN_POINT('',(26.548717843256,-2.873509146136,2.5));
#388 = CARTESIAN_POINT('',(26.496188311957,-2.96471003295,2.5));
#389 = CARTESIAN_POINT('',(26.476689640922,-3.00129624829,2.5));
#390 = CARTESIAN_POINT('',(26.458382001169,-3.038533059287,2.5));
#391 = CARTESIAN_POINT('',(26.441285205348,-3.076366804474,2.5));
#392 = CARTESIAN_POINT('',(26.42541642028,-3.114743660207,2.5));
#393 = CARTESIAN_POINT('',(26.377511190259,-3.242041040679,2.5));
#394 = CARTESIAN_POINT('',(26.350665417218,-3.333003862876,2.5));
#395 = CARTESIAN_POINT('',(26.330423730335,-3.425864813287,2.5));
#396 = CARTESIAN_POINT('',(26.316894598111,-3.519989463453,2.5));
#397 = CARTESIAN_POINT('',(26.31012972973,-3.614744504298,2.5));
#398 = CARTESIAN_POINT('',(26.31012972973,-3.804255495702,2.5));
#399 = CARTESIAN_POINT('',(26.316894598111,-3.899010536547,2.5));
#400 = CARTESIAN_POINT('',(26.330423730335,-3.993135186713,2.5));
#401 = CARTESIAN_POINT('',(26.350665417218,-4.085996137124,2.5));
#402 = CARTESIAN_POINT('',(26.377511190259,-4.176958959321,2.5));
#403 = CARTESIAN_POINT('',(26.42541642028,-4.304256339793,2.5));
#404 = CARTESIAN_POINT('',(26.441285205348,-4.342633195526,2.5));
#405 = CARTESIAN_POINT('',(26.458382001169,-4.380466940713,2.5));
#406 = CARTESIAN_POINT('',(26.476689640922,-4.41770375171,2.5));
#407 = CARTESIAN_POINT('',(26.496188311957,-4.45428996705,2.5));
#408 = CARTESIAN_POINT('',(26.548717843255,-4.545490853864,2.5));
#409 = CARTESIAN_POINT('',(26.583357649491,-4.599136477403,2.5));
#410 = CARTESIAN_POINT('',(26.62069186994,-4.650912798957,2.5));
#411 = CARTESIAN_POINT('',(26.66062153857,-4.700625844395,2.5));
#412 = CARTESIAN_POINT('',(26.70302976917,-4.748086279458,2.5));
#413 = CARTESIAN_POINT('',(26.790949446646,-4.836547538583,2.5));
#414 = CARTESIAN_POINT('',(26.836298976607,-4.877717823094,2.5));
#415 = CARTESIAN_POINT('',(26.883704799188,-4.916458683258,2.5));
#416 = CARTESIAN_POINT('',(26.933027621722,-4.952614129282,2.5));
#417 = CARTESIAN_POINT('',(26.984111213765,-4.986039324792,2.5));
#418 = CARTESIAN_POINT('',(27.068626480788,-5.035083428287,2.5));
#419 = CARTESIAN_POINT('',(27.101051841436,-5.05251753639,2.5));
#420 = CARTESIAN_POINT('',(27.13401890442,-5.068877068317,2.5));
#421 = CARTESIAN_POINT('',(27.167487235755,-5.084135522008,2.5));
#422 = CARTESIAN_POINT('',(27.201414419662,-5.098268844437,2.5));
#423 = CARTESIAN_POINT('',(27.30947438901,-5.139132654557,2.5));
#424 = CARTESIAN_POINT('',(27.385107074067,-5.161727523488,2.5));
#425 = CARTESIAN_POINT('',(27.462207619986,-5.178824842651,2.5));
#426 = CARTESIAN_POINT('',(27.540304062483,-5.190274966429,2.5));
#427 = CARTESIAN_POINT('',(27.618904062172,-5.196,2.5));
#428 = CARTESIAN_POINT('',(27.776095937828,-5.196,2.5));
#429 = CARTESIAN_POINT('',(27.854695937517,-5.190274966429,2.5));
#430 = CARTESIAN_POINT('',(27.932792380014,-5.178824842651,2.5));
#431 = CARTESIAN_POINT('',(28.009892925932,-5.161727523488,2.5));
#432 = CARTESIAN_POINT('',(28.085525610989,-5.139132654557,2.5));
#433 = CARTESIAN_POINT('',(28.193585580338,-5.098268844437,2.5));
#434 = CARTESIAN_POINT('',(28.227512764245,-5.084135522008,2.5));
#435 = CARTESIAN_POINT('',(28.26098109558,-5.068877068317,2.5));
#436 = CARTESIAN_POINT('',(28.293948158564,-5.05251753639,2.5));
#437 = CARTESIAN_POINT('',(28.326373519212,-5.035083428287,2.5));
#438 = CARTESIAN_POINT('',(28.410888786235,-4.986039324792,2.5));
#439 = CARTESIAN_POINT('',(28.461972378277,-4.952614129282,2.5));
#440 = CARTESIAN_POINT('',(28.511295200811,-4.916458683258,2.5));
#441 = CARTESIAN_POINT('',(28.558701023393,-4.877717823095,2.5));
#442 = CARTESIAN_POINT('',(28.604050553353,-4.836547538584,2.5));
#443 = CARTESIAN_POINT('',(28.69197023083,-4.748086279458,2.5));
#444 = CARTESIAN_POINT('',(28.73437846143,-4.700625844395,2.5));
#445 = CARTESIAN_POINT('',(28.77430813006,-4.650912798957,2.5));
#446 = CARTESIAN_POINT('',(28.811642350509,-4.599136477403,2.5));
#447 = CARTESIAN_POINT('',(28.846282156744,-4.545490853864,2.5));
#448 = CARTESIAN_POINT('',(28.898811688043,-4.45428996705,2.5));
#449 = CARTESIAN_POINT('',(28.918310359078,-4.417703751711,2.5));
#450 = CARTESIAN_POINT('',(28.936617998831,-4.380466940713,2.5));
#451 = CARTESIAN_POINT('',(28.953714794652,-4.342633195526,2.5));
#452 = CARTESIAN_POINT('',(28.96958357972,-4.304256339793,2.5));
#453 = CARTESIAN_POINT('',(29.017488809741,-4.176958959321,2.5));
#454 = CARTESIAN_POINT('',(29.044334582782,-4.085996137124,2.5));
#455 = CARTESIAN_POINT('',(29.064576269665,-3.993135186714,2.5));
#456 = CARTESIAN_POINT('',(29.078105401889,-3.899010536547,2.5));
#457 = CARTESIAN_POINT('',(29.08487027027,-3.804255495702,2.5));
#458 = CARTESIAN_POINT('',(29.08487027027,-3.614744504299,2.5));
#459 = CARTESIAN_POINT('',(29.078105401889,-3.519989463453,2.5));
#460 = CARTESIAN_POINT('',(29.064576269665,-3.425864813287,2.5));
#461 = CARTESIAN_POINT('',(29.044334582782,-3.333003862876,2.5));
#462 = CARTESIAN_POINT('',(29.017488809741,-3.242041040679,2.5));
#463 = CARTESIAN_POINT('',(28.96958357972,-3.114743660207,2.5));
#464 = CARTESIAN_POINT('',(28.953714794652,-3.076366804474,2.5));
#465 = CARTESIAN_POINT('',(28.936617998831,-3.038533059287,2.5));
#466 = CARTESIAN_POINT('',(28.918310359078,-3.00129624829,2.5));
#467 = CARTESIAN_POINT('',(28.898811688043,-2.96471003295,2.5));
#468 = CARTESIAN_POINT('',(28.846282156745,-2.873509146136,2.5));
#469 = CARTESIAN_POINT('',(28.811642350509,-2.819863522597,2.5));
#470 = CARTESIAN_POINT('',(28.77430813006,-2.768087201043,2.5));
#471 = CARTESIAN_POINT('',(28.73437846143,-2.718374155605,2.5));
#472 = CARTESIAN_POINT('',(28.69197023083,-2.670913720542,2.5));
#473 = CARTESIAN_POINT('',(28.604050553354,-2.582452461417,2.5));
#474 = CARTESIAN_POINT('',(28.558701023393,-2.541282176906,2.5));
#475 = CARTESIAN_POINT('',(28.511295200812,-2.502541316742,2.5));
#476 = CARTESIAN_POINT('',(28.461972378278,-2.466385870718,2.5));
#477 = CARTESIAN_POINT('',(28.410888786235,-2.432960675208,2.5));
#478 = CARTESIAN_POINT('',(28.258021030758,-2.344251708357,2.5));
#479 = CARTESIAN_POINT('',(28.15205376088,-2.29644389562,2.5));
#480 = CARTESIAN_POINT('',(28.041558530608,-2.259909152652,2.5));
#481 = CARTESIAN_POINT('',(27.927934335868,-2.23530008039,2.5));
#482 = CARTESIAN_POINT('',(27.812705004346,-2.223,2.5));
#483 = CARTESIAN_POINT('',(27.6975,-2.223,2.5));
#484 = FACE_BOUND('',#485,.T.);
#485 = EDGE_LOOP('',(#486,#497,#505,#514));
#486 = ORIENTED_EDGE('',*,*,#487,.F.);
#487 = EDGE_CURVE('',#488,#490,#492,.T.);
#488 = VERTEX_POINT('',#489);
#489 = CARTESIAN_POINT('',(-34.01652243243,15.757153513514,2.5));
#490 = VERTEX_POINT('',#491);
#491 = CARTESIAN_POINT('',(-32.0682154054,15.757153513514,2.5));
#492 = CIRCLE('',#493,0.974153513514);
#493 = AXIS2_PLACEMENT_3D('',#494,#495,#496);
#494 = CARTESIAN_POINT('',(-33.04236891891,15.757153513514,2.5));
#495 = DIRECTION('',(0.,0.,1.));
#496 = DIRECTION('',(1.,0.,-0.));
#497 = ORIENTED_EDGE('',*,*,#498,.T.);
#498 = EDGE_CURVE('',#488,#499,#501,.T.);
#499 = VERTEX_POINT('',#500);
#500 = CARTESIAN_POINT('',(-34.01652243243,17.099846486486,2.5));
#501 = LINE('',#502,#503);
#502 = CARTESIAN_POINT('',(-34.01652243243,-3.621423243243,2.5));
#503 = VECTOR('',#504,1.);
#504 = DIRECTION('',(-0.,1.,0.));
#505 = ORIENTED_EDGE('',*,*,#506,.F.);
#506 = EDGE_CURVE('',#507,#499,#509,.T.);
#507 = VERTEX_POINT('',#508);
#508 = CARTESIAN_POINT('',(-32.0682154054,17.099846486486,2.5));
#509 = CIRCLE('',#510,0.974153513514);
#510 = AXIS2_PLACEMENT_3D('',#511,#512,#513);
#511 = CARTESIAN_POINT('',(-33.04236891891,17.099846486486,2.5));
#512 = DIRECTION('',(0.,0.,1.));
#513 = DIRECTION('',(1.,0.,-0.));
#514 = ORIENTED_EDGE('',*,*,#515,.F.);
#515 = EDGE_CURVE('',#490,#507,#516,.T.);
#516 = LINE('',#517,#518);
#517 = CARTESIAN_POINT('',(-32.0682154054,-3.621423243243,2.5));
#518 = VECTOR('',#519,1.);
#519 = DIRECTION('',(-0.,1.,0.));
#520 = FACE_BOUND('',#521,.T.);
#521 = EDGE_LOOP('',(#522,#533,#541,#550));
#522 = ORIENTED_EDGE('',*,*,#523,.F.);
#523 = EDGE_CURVE('',#524,#526,#528,.T.);
#524 = VERTEX_POINT('',#525);
#525 = CARTESIAN_POINT('',(32.068215405405,15.757153513514,2.5));
#526 = VERTEX_POINT('',#527);
#527 = CARTESIAN_POINT('',(34.016522432432,15.757153513514,2.5));
#528 = CIRCLE('',#529,0.974153513514);
#529 = AXIS2_PLACEMENT_3D('',#530,#531,#532);
#530 = CARTESIAN_POINT('',(33.042368918919,15.757153513514,2.5));
#531 = DIRECTION('',(0.,0.,1.));
#532 = DIRECTION('',(1.,0.,-0.));
#533 = ORIENTED_EDGE('',*,*,#534,.T.);
#534 = EDGE_CURVE('',#524,#535,#537,.T.);
#535 = VERTEX_POINT('',#536);
#536 = CARTESIAN_POINT('',(32.068215405405,17.099846486486,2.5));
#537 = LINE('',#538,#539);
#538 = CARTESIAN_POINT('',(32.068215405405,-3.621423243243,2.5));
#539 = VECTOR('',#540,1.);
#540 = DIRECTION('',(-0.,1.,0.));
#541 = ORIENTED_EDGE('',*,*,#542,.F.);
#542 = EDGE_CURVE('',#543,#535,#545,.T.);
#543 = VERTEX_POINT('',#544);
#544 = CARTESIAN_POINT('',(34.016522432432,17.099846486486,2.5));
#545 = CIRCLE('',#546,0.974153513514);
#546 = AXIS2_PLACEMENT_3D('',#547,#548,#549);
#547 = CARTESIAN_POINT('',(33.042368918919,17.099846486486,2.5));
#548 = DIRECTION('',(0.,0.,1.));
#549 = DIRECTION('',(1.,0.,-0.));
#550 = ORIENTED_EDGE('',*,*,#551,.F.);
#551 = EDGE_CURVE('',#526,#543,#552,.T.);
#552 = LINE('',#553,#554);
#553 = CARTESIAN_POINT('',(34.016522432432,-3.621423243243,2.5));
#554 = VECTOR('',#555,1.);
#555 = DIRECTION('',(-0.,1.,0.));
#556 = PLANE('',#557);
#557 = AXIS2_PLACEMENT_3D('',#558,#559,#560);
#558 = CARTESIAN_POINT('',(-36.93,-23.,2.5));
#559 = DIRECTION('',(0.,0.,1.));
#560 = DIRECTION('',(1.,0.,-0.));
#561 = ADVANCED_FACE('',(#562),#580,.T.);
#562 = FACE_BOUND('',#563,.T.);
#563 = EDGE_LOOP('',(#564,#572,#578,#579));
#564 = ORIENTED_EDGE('',*,*,#565,.F.);
#565 = EDGE_CURVE('',#566,#128,#568,.T.);
#566 = VERTEX_POINT('',#567);
#567 = CARTESIAN_POINT('',(36.93,23.,1.5));
#568 = LINE('',#569,#570);
#569 = CARTESIAN_POINT('',(36.93,23.,0.));
#570 = VECTOR('',#571,1.);
#571 = DIRECTION('',(0.,0.,1.));
#572 = ORIENTED_EDGE('',*,*,#573,.F.);
#573 = EDGE_CURVE('',#32,#566,#574,.T.);
#574 = LINE('',#575,#576);
#575 = CARTESIAN_POINT('',(-36.93,23.,1.5));
#576 = VECTOR('',#577,1.);
#577 = DIRECTION('',(1.,0.,-0.));
#578 = ORIENTED_EDGE('',*,*,#39,.T.);
#579 = ORIENTED_EDGE('',*,*,#135,.T.);
#580 = PLANE('',#581);
#581 = AXIS2_PLACEMENT_3D('',#582,#583,#584);
#582 = CARTESIAN_POINT('',(-36.93,23.,0.));
#583 = DIRECTION('',(-0.,1.,0.));
#584 = DIRECTION('',(0.,0.,1.));
#585 = ADVANCED_FACE('',(#586),#597,.T.);
#586 = FACE_BOUND('',#587,.T.);
#587 = EDGE_LOOP('',(#588,#589,#595,#596));
#588 = ORIENTED_EDGE('',*,*,#61,.F.);
#589 = ORIENTED_EDGE('',*,*,#590,.T.);
#590 = EDGE_CURVE('',#62,#566,#591,.T.);
#591 = LINE('',#592,#593);
#592 = CARTESIAN_POINT('',(36.93,-23.,1.5));
#593 = VECTOR('',#594,1.);
#594 = DIRECTION('',(-0.,1.,0.));
#595 = ORIENTED_EDGE('',*,*,#565,.T.);
#596 = ORIENTED_EDGE('',*,*,#127,.F.);
#597 = PLANE('',#598);
#598 = AXIS2_PLACEMENT_3D('',#599,#600,#601);
#599 = CARTESIAN_POINT('',(36.93,-23.,0.));
#600 = DIRECTION('',(1.,0.,-0.));
#601 = DIRECTION('',(0.,0.,1.));
#602 = ADVANCED_FACE('',(#603),#622,.T.);
#603 = FACE_BOUND('',#604,.T.);
#604 = EDGE_LOOP('',(#605,#606,#614,#621));
#605 = ORIENTED_EDGE('',*,*,#92,.T.);
#606 = ORIENTED_EDGE('',*,*,#607,.T.);
#607 = EDGE_CURVE('',#93,#608,#610,.T.);
#608 = VERTEX_POINT('',#609);
#609 = CARTESIAN_POINT('',(35.43,-21.5,-2.22044604925E-16));
#610 = LINE('',#611,#612);
#611 = CARTESIAN_POINT('',(-36.93,-21.5,-2.22044604925E-16));
#612 = VECTOR('',#613,1.);
#613 = DIRECTION('',(1.,0.,-0.));
#614 = ORIENTED_EDGE('',*,*,#615,.F.);
#615 = EDGE_CURVE('',#62,#608,#616,.T.);
#616 = ELLIPSE('',#617,2.12132034356,1.5);
#617 = AXIS2_PLACEMENT_3D('',#618,#619,#620);
#618 = CARTESIAN_POINT('',(35.43,-21.5,1.5));
#619 = DIRECTION('',(0.707106781187,0.707106781187,0.));
#620 = DIRECTION('',(-0.707106781187,0.707106781187,0.));
#621 = ORIENTED_EDGE('',*,*,#71,.F.);
#622 = CYLINDRICAL_SURFACE('',#623,1.5);
#623 = AXIS2_PLACEMENT_3D('',#624,#625,#626);
#624 = CARTESIAN_POINT('',(-36.93,-21.5,1.5));
#625 = DIRECTION('',(1.,0.,-0.));
#626 = DIRECTION('',(0.,-1.,0.));
#627 = ADVANCED_FACE('',(#628,#646,#682,#718,#754),#790,.F.);
#628 = FACE_BOUND('',#629,.F.);
#629 = EDGE_LOOP('',(#630,#631,#632,#640));
#630 = ORIENTED_EDGE('',*,*,#101,.F.);
#631 = ORIENTED_EDGE('',*,*,#607,.T.);
#632 = ORIENTED_EDGE('',*,*,#633,.T.);
#633 = EDGE_CURVE('',#608,#634,#636,.T.);
#634 = VERTEX_POINT('',#635);
#635 = CARTESIAN_POINT('',(35.43,21.5,-2.22044604925E-16));
#636 = LINE('',#637,#638);
#637 = CARTESIAN_POINT('',(35.43,-23.,-2.22044604925E-16));
#638 = VECTOR('',#639,1.);
#639 = DIRECTION('',(-0.,1.,0.));
#640 = ORIENTED_EDGE('',*,*,#641,.F.);
#641 = EDGE_CURVE('',#102,#634,#642,.T.);
#642 = LINE('',#643,#644);
#643 = CARTESIAN_POINT('',(-36.93,21.5,-2.22044604925E-16));
#644 = VECTOR('',#645,1.);
#645 = DIRECTION('',(1.,0.,-0.));
#646 = FACE_BOUND('',#647,.F.);
#647 = EDGE_LOOP('',(#648,#659,#667,#676));
#648 = ORIENTED_EDGE('',*,*,#649,.F.);
#649 = EDGE_CURVE('',#650,#652,#654,.T.);
#650 = VERTEX_POINT('',#651);
#651 = CARTESIAN_POINT('',(-34.01652243243,-17.09984648648,0.));
#652 = VERTEX_POINT('',#653);
#653 = CARTESIAN_POINT('',(-32.0682154054,-17.09984648648,0.));
#654 = CIRCLE('',#655,0.974153513514);
#655 = AXIS2_PLACEMENT_3D('',#656,#657,#658);
#656 = CARTESIAN_POINT('',(-33.04236891891,-17.09984648648,0.));
#657 = DIRECTION('',(0.,0.,1.));
#658 = DIRECTION('',(1.,0.,-0.));
#659 = ORIENTED_EDGE('',*,*,#660,.T.);
#660 = EDGE_CURVE('',#650,#661,#663,.T.);
#661 = VERTEX_POINT('',#662);
#662 = CARTESIAN_POINT('',(-34.01652243243,-15.75715351351,0.));
#663 = LINE('',#664,#665);
#664 = CARTESIAN_POINT('',(-34.01652243243,-20.04992324324,0.));
#665 = VECTOR('',#666,1.);
#666 = DIRECTION('',(-0.,1.,0.));
#667 = ORIENTED_EDGE('',*,*,#668,.F.);
#668 = EDGE_CURVE('',#669,#661,#671,.T.);
#669 = VERTEX_POINT('',#670);
#670 = CARTESIAN_POINT('',(-32.0682154054,-15.75715351351,0.));
#671 = CIRCLE('',#672,0.974153513514);
#672 = AXIS2_PLACEMENT_3D('',#673,#674,#675);
#673 = CARTESIAN_POINT('',(-33.04236891891,-15.75715351351,0.));
#674 = DIRECTION('',(0.,0.,1.));
#675 = DIRECTION('',(1.,0.,-0.));
#676 = ORIENTED_EDGE('',*,*,#677,.F.);
#677 = EDGE_CURVE('',#652,#669,#678,.T.);
#678 = LINE('',#679,#680);
#679 = CARTESIAN_POINT('',(-32.0682154054,-20.04992324324,0.));
#680 = VECTOR('',#681,1.);
#681 = DIRECTION('',(-0.,1.,0.));
#682 = FACE_BOUND('',#683,.F.);
#683 = EDGE_LOOP('',(#684,#695,#703,#712));
#684 = ORIENTED_EDGE('',*,*,#685,.F.);
#685 = EDGE_CURVE('',#686,#688,#690,.T.);
#686 = VERTEX_POINT('',#687);
#687 = CARTESIAN_POINT('',(32.068215405405,-17.09984648648,0.));
#688 = VERTEX_POINT('',#689);
#689 = CARTESIAN_POINT('',(34.016522432432,-17.09984648648,0.));
#690 = CIRCLE('',#691,0.974153513514);
#691 = AXIS2_PLACEMENT_3D('',#692,#693,#694);
#692 = CARTESIAN_POINT('',(33.042368918919,-17.09984648648,0.));
#693 = DIRECTION('',(0.,0.,1.));
#694 = DIRECTION('',(1.,0.,-0.));
#695 = ORIENTED_EDGE('',*,*,#696,.T.);
#696 = EDGE_CURVE('',#686,#697,#699,.T.);
#697 = VERTEX_POINT('',#698);
#698 = CARTESIAN_POINT('',(32.068215405405,-15.75715351351,0.));
#699 = LINE('',#700,#701);
#700 = CARTESIAN_POINT('',(32.068215405405,-20.04992324324,0.));
#701 = VECTOR('',#702,1.);
#702 = DIRECTION('',(-0.,1.,0.));
#703 = ORIENTED_EDGE('',*,*,#704,.F.);
#704 = EDGE_CURVE('',#705,#697,#707,.T.);
#705 = VERTEX_POINT('',#706);
#706 = CARTESIAN_POINT('',(34.016522432432,-15.75715351351,0.));
#707 = CIRCLE('',#708,0.974153513514);
#708 = AXIS2_PLACEMENT_3D('',#709,#710,#711);
#709 = CARTESIAN_POINT('',(33.042368918919,-15.75715351351,0.));
#710 = DIRECTION('',(0.,0.,1.));
#711 = DIRECTION('',(1.,0.,-0.));
#712 = ORIENTED_EDGE('',*,*,#713,.F.);
#713 = EDGE_CURVE('',#688,#705,#714,.T.);
#714 = LINE('',#715,#716);
#715 = CARTESIAN_POINT('',(34.016522432432,-20.04992324324,0.));
#716 = VECTOR('',#717,1.);
#717 = DIRECTION('',(-0.,1.,0.));
#718 = FACE_BOUND('',#719,.F.);
#719 = EDGE_LOOP('',(#720,#731,#739,#748));
#720 = ORIENTED_EDGE('',*,*,#721,.F.);
#721 = EDGE_CURVE('',#722,#724,#726,.T.);
#722 = VERTEX_POINT('',#723);
#723 = CARTESIAN_POINT('',(-34.01652243243,15.757153513514,0.));
#724 = VERTEX_POINT('',#725);
#725 = CARTESIAN_POINT('',(-32.0682154054,15.757153513514,0.));
#726 = CIRCLE('',#727,0.974153513514);
#727 = AXIS2_PLACEMENT_3D('',#728,#729,#730);
#728 = CARTESIAN_POINT('',(-33.04236891891,15.757153513514,0.));
#729 = DIRECTION('',(0.,0.,1.));
#730 = DIRECTION('',(1.,0.,-0.));
#731 = ORIENTED_EDGE('',*,*,#732,.T.);
#732 = EDGE_CURVE('',#722,#733,#735,.T.);
#733 = VERTEX_POINT('',#734);
#734 = CARTESIAN_POINT('',(-34.01652243243,17.099846486486,0.));
#735 = LINE('',#736,#737);
#736 = CARTESIAN_POINT('',(-34.01652243243,-3.621423243243,0.));
#737 = VECTOR('',#738,1.);
#738 = DIRECTION('',(-0.,1.,0.));
#739 = ORIENTED_EDGE('',*,*,#740,.F.);
#740 = EDGE_CURVE('',#741,#733,#743,.T.);
#741 = VERTEX_POINT('',#742);
#742 = CARTESIAN_POINT('',(-32.0682154054,17.099846486486,0.));
#743 = CIRCLE('',#744,0.974153513514);
#744 = AXIS2_PLACEMENT_3D('',#745,#746,#747);
#745 = CARTESIAN_POINT('',(-33.04236891891,17.099846486486,0.));
#746 = DIRECTION('',(0.,0.,1.));
#747 = DIRECTION('',(1.,0.,-0.));
#748 = ORIENTED_EDGE('',*,*,#749,.F.);
#749 = EDGE_CURVE('',#724,#741,#750,.T.);
#750 = LINE('',#751,#752);
#751 = CARTESIAN_POINT('',(-32.0682154054,-3.621423243243,0.));
#752 = VECTOR('',#753,1.);
#753 = DIRECTION('',(-0.,1.,0.));
#754 = FACE_BOUND('',#755,.F.);
#755 = EDGE_LOOP('',(#756,#767,#775,#784));
#756 = ORIENTED_EDGE('',*,*,#757,.F.);
#757 = EDGE_CURVE('',#758,#760,#762,.T.);
#758 = VERTEX_POINT('',#759);
#759 = CARTESIAN_POINT('',(32.068215405405,15.757153513514,0.));
#760 = VERTEX_POINT('',#761);
#761 = CARTESIAN_POINT('',(34.016522432432,15.757153513514,0.));
#762 = CIRCLE('',#763,0.974153513514);
#763 = AXIS2_PLACEMENT_3D('',#764,#765,#766);
#764 = CARTESIAN_POINT('',(33.042368918919,15.757153513514,0.));
#765 = DIRECTION('',(0.,0.,1.));
#766 = DIRECTION('',(1.,0.,-0.));
#767 = ORIENTED_EDGE('',*,*,#768,.T.);
#768 = EDGE_CURVE('',#758,#769,#771,.T.);
#769 = VERTEX_POINT('',#770);
#770 = CARTESIAN_POINT('',(32.068215405405,17.099846486486,0.));
#771 = LINE('',#772,#773);
#772 = CARTESIAN_POINT('',(32.068215405405,-3.621423243243,0.));
#773 = VECTOR('',#774,1.);
#774 = DIRECTION('',(-0.,1.,0.));
#775 = ORIENTED_EDGE('',*,*,#776,.F.);
#776 = EDGE_CURVE('',#777,#769,#779,.T.);
#777 = VERTEX_POINT('',#778);
#778 = CARTESIAN_POINT('',(34.016522432432,17.099846486486,0.));
#779 = CIRCLE('',#780,0.974153513514);
#780 = AXIS2_PLACEMENT_3D('',#781,#782,#783);
#781 = CARTESIAN_POINT('',(33.042368918919,17.099846486486,0.));
#782 = DIRECTION('',(0.,0.,1.));
#783 = DIRECTION('',(1.,0.,-0.));
#784 = ORIENTED_EDGE('',*,*,#785,.F.);
#785 = EDGE_CURVE('',#760,#777,#786,.T.);
#786 = LINE('',#787,#788);
#787 = CARTESIAN_POINT('',(34.016522432432,-3.621423243243,0.));
#788 = VECTOR('',#789,1.);
#789 = DIRECTION('',(-0.,1.,0.));
#790 = PLANE('',#791);
#791 = AXIS2_PLACEMENT_3D('',#792,#793,#794);
#792 = CARTESIAN_POINT('',(-36.93,-23.,0.));
#793 = DIRECTION('',(0.,0.,1.));
#794 = DIRECTION('',(1.,0.,-0.));
#795 = ADVANCED_FACE('',(#796),#808,.T.);
#796 = FACE_BOUND('',#797,.F.);
#797 = EDGE_LOOP('',(#798,#799,#800,#807));
#798 = ORIENTED_EDGE('',*,*,#109,.T.);
#799 = ORIENTED_EDGE('',*,*,#641,.T.);
#800 = ORIENTED_EDGE('',*,*,#801,.F.);
#801 = EDGE_CURVE('',#566,#634,#802,.T.);
#802 = ELLIPSE('',#803,2.12132034356,1.5);
#803 = AXIS2_PLACEMENT_3D('',#804,#805,#806);
#804 = CARTESIAN_POINT('',(35.43,21.5,1.5));
#805 = DIRECTION('',(-0.707106781187,0.707106781187,0.));
#806 = DIRECTION('',(0.707106781187,0.707106781187,0.));
#807 = ORIENTED_EDGE('',*,*,#573,.F.);
#808 = CYLINDRICAL_SURFACE('',#809,1.5);
#809 = AXIS2_PLACEMENT_3D('',#810,#811,#812);
#810 = CARTESIAN_POINT('',(-36.93,21.5,1.5));
#811 = DIRECTION('',(1.,0.,-0.));
#812 = DIRECTION('',(0.,1.,0.));
#813 = ADVANCED_FACE('',(#814),#830,.F.);
#814 = FACE_BOUND('',#815,.F.);
#815 = EDGE_LOOP('',(#816,#822,#823,#829));
#816 = ORIENTED_EDGE('',*,*,#817,.F.);
#817 = EDGE_CURVE('',#650,#144,#818,.T.);
#818 = LINE('',#819,#820);
#819 = CARTESIAN_POINT('',(-34.01652243243,-17.09984648648,-1.));
#820 = VECTOR('',#821,1.);
#821 = DIRECTION('',(0.,0.,1.));
#822 = ORIENTED_EDGE('',*,*,#649,.T.);
#823 = ORIENTED_EDGE('',*,*,#824,.T.);
#824 = EDGE_CURVE('',#652,#146,#825,.T.);
#825 = LINE('',#826,#827);
#826 = CARTESIAN_POINT('',(-32.0682154054,-17.09984648648,-1.));
#827 = VECTOR('',#828,1.);
#828 = DIRECTION('',(0.,0.,1.));
#829 = ORIENTED_EDGE('',*,*,#143,.F.);
#830 = CYLINDRICAL_SURFACE('',#831,0.974153513514);
#831 = AXIS2_PLACEMENT_3D('',#832,#833,#834);
#832 = CARTESIAN_POINT('',(-33.04236891891,-17.09984648648,-1.));
#833 = DIRECTION('',(0.,0.,1.));
#834 = DIRECTION('',(1.,0.,-0.));
#835 = ADVANCED_FACE('',(#836),#847,.T.);
#836 = FACE_BOUND('',#837,.T.);
#837 = EDGE_LOOP('',(#838,#839,#840,#846));
#838 = ORIENTED_EDGE('',*,*,#817,.F.);
#839 = ORIENTED_EDGE('',*,*,#660,.T.);
#840 = ORIENTED_EDGE('',*,*,#841,.T.);
#841 = EDGE_CURVE('',#661,#155,#842,.T.);
#842 = LINE('',#843,#844);
#843 = CARTESIAN_POINT('',(-34.01652243243,-15.75715351351,-1.));
#844 = VECTOR('',#845,1.);
#845 = DIRECTION('',(0.,0.,1.));
#846 = ORIENTED_EDGE('',*,*,#154,.F.);
#847 = PLANE('',#848);
#848 = AXIS2_PLACEMENT_3D('',#849,#850,#851);
#849 = CARTESIAN_POINT('',(-34.01652243243,-17.09984648648,-1.));
#850 = DIRECTION('',(1.,0.,-0.));
#851 = DIRECTION('',(0.,0.,1.));
#852 = ADVANCED_FACE('',(#853),#864,.F.);
#853 = FACE_BOUND('',#854,.F.);
#854 = EDGE_LOOP('',(#855,#856,#857,#863));
#855 = ORIENTED_EDGE('',*,*,#824,.F.);
#856 = ORIENTED_EDGE('',*,*,#677,.T.);
#857 = ORIENTED_EDGE('',*,*,#858,.T.);
#858 = EDGE_CURVE('',#669,#163,#859,.T.);
#859 = LINE('',#860,#861);
#860 = CARTESIAN_POINT('',(-32.0682154054,-15.75715351351,-1.));
#861 = VECTOR('',#862,1.);
#862 = DIRECTION('',(0.,0.,1.));
#863 = ORIENTED_EDGE('',*,*,#171,.F.);
#864 = PLANE('',#865);
#865 = AXIS2_PLACEMENT_3D('',#866,#867,#868);
#866 = CARTESIAN_POINT('',(-32.0682154054,-17.09984648648,-1.));
#867 = DIRECTION('',(1.,0.,-0.));
#868 = DIRECTION('',(0.,0.,1.));
#869 = ADVANCED_FACE('',(#870),#876,.F.);
#870 = FACE_BOUND('',#871,.F.);
#871 = EDGE_LOOP('',(#872,#873,#874,#875));
#872 = ORIENTED_EDGE('',*,*,#162,.F.);
#873 = ORIENTED_EDGE('',*,*,#858,.F.);
#874 = ORIENTED_EDGE('',*,*,#668,.T.);
#875 = ORIENTED_EDGE('',*,*,#841,.T.);
#876 = CYLINDRICAL_SURFACE('',#877,0.974153513514);
#877 = AXIS2_PLACEMENT_3D('',#878,#879,#880);
#878 = CARTESIAN_POINT('',(-33.04236891891,-15.75715351351,-1.));
#879 = DIRECTION('',(0.,0.,1.));
#880 = DIRECTION('',(1.,0.,-0.));
#881 = ADVANCED_FACE('',(#882),#907,.T.);
#882 = FACE_BOUND('',#883,.T.);
#883 = EDGE_LOOP('',(#884,#892,#900,#906));
#884 = ORIENTED_EDGE('',*,*,#885,.F.);
#885 = EDGE_CURVE('',#886,#180,#888,.T.);
#886 = VERTEX_POINT('',#887);
#887 = CARTESIAN_POINT('',(-15.23112972973,-17.067,1.998));
#888 = LINE('',#889,#890);
#889 = CARTESIAN_POINT('',(-15.23112972973,-17.067,1.998));
#890 = VECTOR('',#891,1.);
#891 = DIRECTION('',(0.,0.,1.));
#892 = ORIENTED_EDGE('',*,*,#893,.F.);
#893 = EDGE_CURVE('',#894,#886,#896,.T.);
#894 = VERTEX_POINT('',#895);
#895 = CARTESIAN_POINT('',(-27.23837027027,-17.067,1.998));
#896 = LINE('',#897,#898);
#897 = CARTESIAN_POINT('',(-27.23837027027,-17.067,1.998));
#898 = VECTOR('',#899,1.);
#899 = DIRECTION('',(1.,0.,-0.));
#900 = ORIENTED_EDGE('',*,*,#901,.T.);
#901 = EDGE_CURVE('',#894,#182,#902,.T.);
#902 = LINE('',#903,#904);
#903 = CARTESIAN_POINT('',(-27.23837027027,-17.067,1.998));
#904 = VECTOR('',#905,1.);
#905 = DIRECTION('',(0.,0.,1.));
#906 = ORIENTED_EDGE('',*,*,#179,.F.);
#907 = PLANE('',#908);
#908 = AXIS2_PLACEMENT_3D('',#909,#910,#911);
#909 = CARTESIAN_POINT('',(-27.23837027027,-17.067,1.998));
#910 = DIRECTION('',(-0.,1.,0.));
#911 = DIRECTION('',(0.,0.,1.));
#912 = ADVANCED_FACE('',(#913),#931,.F.);
#913 = FACE_BOUND('',#914,.F.);
#914 = EDGE_LOOP('',(#915,#916,#924,#930));
#915 = ORIENTED_EDGE('',*,*,#885,.F.);
#916 = ORIENTED_EDGE('',*,*,#917,.T.);
#917 = EDGE_CURVE('',#886,#918,#920,.T.);
#918 = VERTEX_POINT('',#919);
#919 = CARTESIAN_POINT('',(-15.23112972973,-4.202,1.998));
#920 = LINE('',#921,#922);
#921 = CARTESIAN_POINT('',(-15.23112972973,-17.067,1.998));
#922 = VECTOR('',#923,1.);
#923 = DIRECTION('',(-0.,1.,0.));
#924 = ORIENTED_EDGE('',*,*,#925,.T.);
#925 = EDGE_CURVE('',#918,#198,#926,.T.);
#926 = LINE('',#927,#928);
#927 = CARTESIAN_POINT('',(-15.23112972973,-4.202,1.998));
#928 = VECTOR('',#929,1.);
#929 = DIRECTION('',(0.,0.,1.));
#930 = ORIENTED_EDGE('',*,*,#205,.F.);
#931 = PLANE('',#932);
#932 = AXIS2_PLACEMENT_3D('',#933,#934,#935);
#933 = CARTESIAN_POINT('',(-15.23112972973,-17.067,1.998));
#934 = DIRECTION('',(1.,0.,-0.));
#935 = DIRECTION('',(0.,0.,1.));
#936 = ADVANCED_FACE('',(#937),#955,.T.);
#937 = FACE_BOUND('',#938,.T.);
#938 = EDGE_LOOP('',(#939,#940,#948,#954));
#939 = ORIENTED_EDGE('',*,*,#901,.F.);
#940 = ORIENTED_EDGE('',*,*,#941,.T.);
#941 = EDGE_CURVE('',#894,#942,#944,.T.);
#942 = VERTEX_POINT('',#943);
#943 = CARTESIAN_POINT('',(-27.23837027027,-4.202,1.998));
#944 = LINE('',#945,#946);
#945 = CARTESIAN_POINT('',(-27.23837027027,-17.067,1.998));
#946 = VECTOR('',#947,1.);
#947 = DIRECTION('',(-0.,1.,0.));
#948 = ORIENTED_EDGE('',*,*,#949,.T.);
#949 = EDGE_CURVE('',#942,#190,#950,.T.);
#950 = LINE('',#951,#952);
#951 = CARTESIAN_POINT('',(-27.23837027027,-4.202,1.998));
#952 = VECTOR('',#953,1.);
#953 = DIRECTION('',(0.,0.,1.));
#954 = ORIENTED_EDGE('',*,*,#189,.F.);
#955 = PLANE('',#956);
#956 = AXIS2_PLACEMENT_3D('',#957,#958,#959);
#957 = CARTESIAN_POINT('',(-27.23837027027,-17.067,1.998));
#958 = DIRECTION('',(1.,0.,-0.));
#959 = DIRECTION('',(0.,0.,1.));
#960 = ADVANCED_FACE('',(#961),#972,.F.);
#961 = FACE_BOUND('',#962,.F.);
#962 = EDGE_LOOP('',(#963,#964,#970,#971));
#963 = ORIENTED_EDGE('',*,*,#925,.F.);
#964 = ORIENTED_EDGE('',*,*,#965,.F.);
#965 = EDGE_CURVE('',#942,#918,#966,.T.);
#966 = LINE('',#967,#968);
#967 = CARTESIAN_POINT('',(-27.23837027027,-4.202,1.998));
#968 = VECTOR('',#969,1.);
#969 = DIRECTION('',(1.,0.,-0.));
#970 = ORIENTED_EDGE('',*,*,#949,.T.);
#971 = ORIENTED_EDGE('',*,*,#197,.F.);
#972 = PLANE('',#973);
#973 = AXIS2_PLACEMENT_3D('',#974,#975,#976);
#974 = CARTESIAN_POINT('',(-27.23837027027,-4.202,1.998));
#975 = DIRECTION('',(-0.,1.,0.));
#976 = DIRECTION('',(0.,0.,1.));
#977 = ADVANCED_FACE('',(#978),#994,.F.);
#978 = FACE_BOUND('',#979,.F.);
#979 = EDGE_LOOP('',(#980,#986,#987,#993));
#980 = ORIENTED_EDGE('',*,*,#981,.F.);
#981 = EDGE_CURVE('',#686,#214,#982,.T.);
#982 = LINE('',#983,#984);
#983 = CARTESIAN_POINT('',(32.068215405405,-17.09984648648,-1.));
#984 = VECTOR('',#985,1.);
#985 = DIRECTION('',(0.,0.,1.));
#986 = ORIENTED_EDGE('',*,*,#685,.T.);
#987 = ORIENTED_EDGE('',*,*,#988,.T.);
#988 = EDGE_CURVE('',#688,#216,#989,.T.);
#989 = LINE('',#990,#991);
#990 = CARTESIAN_POINT('',(34.016522432432,-17.09984648648,-1.));
#991 = VECTOR('',#992,1.);
#992 = DIRECTION('',(0.,0.,1.));
#993 = ORIENTED_EDGE('',*,*,#213,.F.);
#994 = CYLINDRICAL_SURFACE('',#995,0.974153513514);
#995 = AXIS2_PLACEMENT_3D('',#996,#997,#998);
#996 = CARTESIAN_POINT('',(33.042368918919,-17.09984648648,-1.));
#997 = DIRECTION('',(0.,0.,1.));
#998 = DIRECTION('',(1.,0.,-0.));
#999 = ADVANCED_FACE('',(#1000),#1011,.T.);
#1000 = FACE_BOUND('',#1001,.T.);
#1001 = EDGE_LOOP('',(#1002,#1003,#1004,#1010));
#1002 = ORIENTED_EDGE('',*,*,#981,.F.);
#1003 = ORIENTED_EDGE('',*,*,#696,.T.);
#1004 = ORIENTED_EDGE('',*,*,#1005,.T.);
#1005 = EDGE_CURVE('',#697,#225,#1006,.T.);
#1006 = LINE('',#1007,#1008);
#1007 = CARTESIAN_POINT('',(32.068215405405,-15.75715351351,-1.));
#1008 = VECTOR('',#1009,1.);
#1009 = DIRECTION('',(0.,0.,1.));
#1010 = ORIENTED_EDGE('',*,*,#224,.F.);
#1011 = PLANE('',#1012);
#1012 = AXIS2_PLACEMENT_3D('',#1013,#1014,#1015);
#1013 = CARTESIAN_POINT('',(32.068215405405,-17.09984648648,-1.));
#1014 = DIRECTION('',(1.,0.,-0.));
#1015 = DIRECTION('',(0.,0.,1.));
#1016 = ADVANCED_FACE('',(#1017),#1028,.F.);
#1017 = FACE_BOUND('',#1018,.F.);
#1018 = EDGE_LOOP('',(#1019,#1020,#1021,#1027));
#1019 = ORIENTED_EDGE('',*,*,#988,.F.);
#1020 = ORIENTED_EDGE('',*,*,#713,.T.);
#1021 = ORIENTED_EDGE('',*,*,#1022,.T.);
#1022 = EDGE_CURVE('',#705,#233,#1023,.T.);
#1023 = LINE('',#1024,#1025);
#1024 = CARTESIAN_POINT('',(34.016522432432,-15.75715351351,-1.));
#1025 = VECTOR('',#1026,1.);
#1026 = DIRECTION('',(0.,0.,1.));
#1027 = ORIENTED_EDGE('',*,*,#241,.F.);
#1028 = PLANE('',#1029);
#1029 = AXIS2_PLACEMENT_3D('',#1030,#1031,#1032);
#1030 = CARTESIAN_POINT('',(34.016522432432,-17.09984648648,-1.));
#1031 = DIRECTION('',(1.,0.,-0.));
#1032 = DIRECTION('',(0.,0.,1.));
#1033 = ADVANCED_FACE('',(#1034),#1040,.F.);
#1034 = FACE_BOUND('',#1035,.F.);
#1035 = EDGE_LOOP('',(#1036,#1037,#1038,#1039));
#1036 = ORIENTED_EDGE('',*,*,#232,.F.);
#1037 = ORIENTED_EDGE('',*,*,#1022,.F.);
#1038 = ORIENTED_EDGE('',*,*,#704,.T.);
#1039 = ORIENTED_EDGE('',*,*,#1005,.T.);
#1040 = CYLINDRICAL_SURFACE('',#1041,0.974153513514);
#1041 = AXIS2_PLACEMENT_3D('',#1042,#1043,#1044);
#1042 = CARTESIAN_POINT('',(33.042368918919,-15.75715351351,-1.));
#1043 = DIRECTION('',(0.,0.,1.));
#1044 = DIRECTION('',(1.,0.,-0.));
#1045 = ADVANCED_FACE('',(#1046),#1065,.F.);
#1046 = FACE_BOUND('',#1047,.F.);
#1047 = EDGE_LOOP('',(#1048,#1057,#1063,#1064));
#1048 = ORIENTED_EDGE('',*,*,#1049,.F.);
#1049 = EDGE_CURVE('',#1050,#1050,#1052,.T.);
#1050 = VERTEX_POINT('',#1051);
#1051 = CARTESIAN_POINT('',(23.08125,-2.223,0.998));
#1052 = ELLIPSE('',#1053,1.4865,1.38737027027);
#1053 = AXIS2_PLACEMENT_3D('',#1054,#1055,#1056);
#1054 = CARTESIAN_POINT('',(23.08125,-3.7095,0.998));
#1055 = DIRECTION('',(0.,0.,-1.));
#1056 = DIRECTION('',(0.,1.,0.));
#1057 = ORIENTED_EDGE('',*,*,#1058,.T.);
#1058 = EDGE_CURVE('',#1050,#250,#1059,.T.);
#1059 = LINE('',#1060,#1061);
#1060 = CARTESIAN_POINT('',(23.08125,-2.223,0.998));
#1061 = VECTOR('',#1062,1.);
#1062 = DIRECTION('',(0.,0.,1.));
#1063 = ORIENTED_EDGE('',*,*,#249,.F.);
#1064 = ORIENTED_EDGE('',*,*,#1058,.F.);
#1065 = SURFACE_OF_LINEAR_EXTRUSION('',#1066,#1071);
#1066 = ELLIPSE('',#1067,1.4865,1.38737027027);
#1067 = AXIS2_PLACEMENT_3D('',#1068,#1069,#1070);
#1068 = CARTESIAN_POINT('',(23.08125,-3.7095,0.998));
#1069 = DIRECTION('',(0.,0.,-1.));
#1070 = DIRECTION('',(0.,1.,0.));
#1071 = VECTOR('',#1072,1.);
#1072 = DIRECTION('',(-0.,-0.,-1.));
#1073 = ADVANCED_FACE('',(#1074),#1093,.F.);
#1074 = FACE_BOUND('',#1075,.F.);
#1075 = EDGE_LOOP('',(#1076,#1085,#1091,#1092));
#1076 = ORIENTED_EDGE('',*,*,#1077,.F.);
#1077 = EDGE_CURVE('',#1078,#1078,#1080,.T.);
#1078 = VERTEX_POINT('',#1079);
#1079 = CARTESIAN_POINT('',(27.6975,-2.223,0.998));
#1080 = ELLIPSE('',#1081,1.4865,1.38737027027);
#1081 = AXIS2_PLACEMENT_3D('',#1082,#1083,#1084);
#1082 = CARTESIAN_POINT('',(27.6975,-3.7095,0.998));
#1083 = DIRECTION('',(0.,0.,-1.));
#1084 = DIRECTION('',(0.,1.,0.));
#1085 = ORIENTED_EDGE('',*,*,#1086,.T.);
#1086 = EDGE_CURVE('',#1078,#369,#1087,.T.);
#1087 = LINE('',#1088,#1089);
#1088 = CARTESIAN_POINT('',(27.6975,-2.223,0.998));
#1089 = VECTOR('',#1090,1.);
#1090 = DIRECTION('',(0.,0.,1.));
#1091 = ORIENTED_EDGE('',*,*,#368,.F.);
#1092 = ORIENTED_EDGE('',*,*,#1086,.F.);
#1093 = SURFACE_OF_LINEAR_EXTRUSION('',#1094,#1099);
#1094 = ELLIPSE('',#1095,1.4865,1.38737027027);
#1095 = AXIS2_PLACEMENT_3D('',#1096,#1097,#1098);
#1096 = CARTESIAN_POINT('',(27.6975,-3.7095,0.998));
#1097 = DIRECTION('',(0.,0.,-1.));
#1098 = DIRECTION('',(0.,1.,0.));
#1099 = VECTOR('',#1100,1.);
#1100 = DIRECTION('',(-0.,-0.,-1.));
#1101 = ADVANCED_FACE('',(#1102),#1118,.F.);
#1102 = FACE_BOUND('',#1103,.F.);
#1103 = EDGE_LOOP('',(#1104,#1110,#1111,#1117));
#1104 = ORIENTED_EDGE('',*,*,#1105,.F.);
#1105 = EDGE_CURVE('',#722,#488,#1106,.T.);
#1106 = LINE('',#1107,#1108);
#1107 = CARTESIAN_POINT('',(-34.01652243243,15.757153513514,-1.));
#1108 = VECTOR('',#1109,1.);
#1109 = DIRECTION('',(0.,0.,1.));
#1110 = ORIENTED_EDGE('',*,*,#721,.T.);
#1111 = ORIENTED_EDGE('',*,*,#1112,.T.);
#1112 = EDGE_CURVE('',#724,#490,#1113,.T.);
#1113 = LINE('',#1114,#1115);
#1114 = CARTESIAN_POINT('',(-32.0682154054,15.757153513514,-1.));
#1115 = VECTOR('',#1116,1.);
#1116 = DIRECTION('',(0.,0.,1.));
#1117 = ORIENTED_EDGE('',*,*,#487,.F.);
#1118 = CYLINDRICAL_SURFACE('',#1119,0.974153513514);
#1119 = AXIS2_PLACEMENT_3D('',#1120,#1121,#1122);
#1120 = CARTESIAN_POINT('',(-33.04236891891,15.757153513514,-1.));
#1121 = DIRECTION('',(0.,0.,1.));
#1122 = DIRECTION('',(1.,0.,-0.));
#1123 = ADVANCED_FACE('',(#1124),#1135,.T.);
#1124 = FACE_BOUND('',#1125,.T.);
#1125 = EDGE_LOOP('',(#1126,#1127,#1128,#1134));
#1126 = ORIENTED_EDGE('',*,*,#1105,.F.);
#1127 = ORIENTED_EDGE('',*,*,#732,.T.);
#1128 = ORIENTED_EDGE('',*,*,#1129,.T.);
#1129 = EDGE_CURVE('',#733,#499,#1130,.T.);
#1130 = LINE('',#1131,#1132);
#1131 = CARTESIAN_POINT('',(-34.01652243243,17.099846486486,-1.));
#1132 = VECTOR('',#1133,1.);
#1133 = DIRECTION('',(0.,0.,1.));
#1134 = ORIENTED_EDGE('',*,*,#498,.F.);
#1135 = PLANE('',#1136);
#1136 = AXIS2_PLACEMENT_3D('',#1137,#1138,#1139);
#1137 = CARTESIAN_POINT('',(-34.01652243243,15.757153513514,-1.));
#1138 = DIRECTION('',(1.,0.,-0.));
#1139 = DIRECTION('',(0.,0.,1.));
#1140 = ADVANCED_FACE('',(#1141),#1152,.F.);
#1141 = FACE_BOUND('',#1142,.F.);
#1142 = EDGE_LOOP('',(#1143,#1144,#1145,#1151));
#1143 = ORIENTED_EDGE('',*,*,#1112,.F.);
#1144 = ORIENTED_EDGE('',*,*,#749,.T.);
#1145 = ORIENTED_EDGE('',*,*,#1146,.T.);
#1146 = EDGE_CURVE('',#741,#507,#1147,.T.);
#1147 = LINE('',#1148,#1149);
#1148 = CARTESIAN_POINT('',(-32.0682154054,17.099846486486,-1.));
#1149 = VECTOR('',#1150,1.);
#1150 = DIRECTION('',(0.,0.,1.));
#1151 = ORIENTED_EDGE('',*,*,#515,.F.);
#1152 = PLANE('',#1153);
#1153 = AXIS2_PLACEMENT_3D('',#1154,#1155,#1156);
#1154 = CARTESIAN_POINT('',(-32.0682154054,15.757153513514,-1.));
#1155 = DIRECTION('',(1.,0.,-0.));
#1156 = DIRECTION('',(0.,0.,1.));
#1157 = ADVANCED_FACE('',(#1158),#1164,.F.);
#1158 = FACE_BOUND('',#1159,.F.);
#1159 = EDGE_LOOP('',(#1160,#1161,#1162,#1163));
#1160 = ORIENTED_EDGE('',*,*,#506,.F.);
#1161 = ORIENTED_EDGE('',*,*,#1146,.F.);
#1162 = ORIENTED_EDGE('',*,*,#740,.T.);
#1163 = ORIENTED_EDGE('',*,*,#1129,.T.);
#1164 = CYLINDRICAL_SURFACE('',#1165,0.974153513514);
#1165 = AXIS2_PLACEMENT_3D('',#1166,#1167,#1168);
#1166 = CARTESIAN_POINT('',(-33.04236891891,17.099846486486,-1.));
#1167 = DIRECTION('',(0.,0.,1.));
#1168 = DIRECTION('',(1.,0.,-0.));
#1169 = ADVANCED_FACE('',(#1170),#1186,.F.);
#1170 = FACE_BOUND('',#1171,.F.);
#1171 = EDGE_LOOP('',(#1172,#1178,#1179,#1185));
#1172 = ORIENTED_EDGE('',*,*,#1173,.F.);
#1173 = EDGE_CURVE('',#758,#524,#1174,.T.);
#1174 = LINE('',#1175,#1176);
#1175 = CARTESIAN_POINT('',(32.068215405405,15.757153513514,-1.));
#1176 = VECTOR('',#1177,1.);
#1177 = DIRECTION('',(0.,0.,1.));
#1178 = ORIENTED_EDGE('',*,*,#757,.T.);
#1179 = ORIENTED_EDGE('',*,*,#1180,.T.);
#1180 = EDGE_CURVE('',#760,#526,#1181,.T.);
#1181 = LINE('',#1182,#1183);
#1182 = CARTESIAN_POINT('',(34.016522432432,15.757153513514,-1.));
#1183 = VECTOR('',#1184,1.);
#1184 = DIRECTION('',(0.,0.,1.));
#1185 = ORIENTED_EDGE('',*,*,#523,.F.);
#1186 = CYLINDRICAL_SURFACE('',#1187,0.974153513514);
#1187 = AXIS2_PLACEMENT_3D('',#1188,#1189,#1190);
#1188 = CARTESIAN_POINT('',(33.042368918919,15.757153513514,-1.));
#1189 = DIRECTION('',(0.,0.,1.));
#1190 = DIRECTION('',(1.,0.,-0.));
#1191 = ADVANCED_FACE('',(#1192),#1203,.T.);
#1192 = FACE_BOUND('',#1193,.T.);
#1193 = EDGE_LOOP('',(#1194,#1195,#1196,#1202));
#1194 = ORIENTED_EDGE('',*,*,#1173,.F.);
#1195 = ORIENTED_EDGE('',*,*,#768,.T.);
#1196 = ORIENTED_EDGE('',*,*,#1197,.T.);
#1197 = EDGE_CURVE('',#769,#535,#1198,.T.);
#1198 = LINE('',#1199,#1200);
#1199 = CARTESIAN_POINT('',(32.068215405405,17.099846486486,-1.));
#1200 = VECTOR('',#1201,1.);
#1201 = DIRECTION('',(0.,0.,1.));
#1202 = ORIENTED_EDGE('',*,*,#534,.F.);
#1203 = PLANE('',#1204);
#1204 = AXIS2_PLACEMENT_3D('',#1205,#1206,#1207);
#1205 = CARTESIAN_POINT('',(32.068215405405,15.757153513514,-1.));
#1206 = DIRECTION('',(1.,0.,-0.));
#1207 = DIRECTION('',(0.,0.,1.));
#1208 = ADVANCED_FACE('',(#1209),#1220,.F.);
#1209 = FACE_BOUND('',#1210,.F.);
#1210 = EDGE_LOOP('',(#1211,#1212,#1213,#1219));
#1211 = ORIENTED_EDGE('',*,*,#1180,.F.);
#1212 = ORIENTED_EDGE('',*,*,#785,.T.);
#1213 = ORIENTED_EDGE('',*,*,#1214,.T.);
#1214 = EDGE_CURVE('',#777,#543,#1215,.T.);
#1215 = LINE('',#1216,#1217);
#1216 = CARTESIAN_POINT('',(34.016522432432,17.099846486486,-1.));
#1217 = VECTOR('',#1218,1.);
#1218 = DIRECTION('',(0.,0.,1.));
#1219 = ORIENTED_EDGE('',*,*,#551,.F.);
#1220 = PLANE('',#1221);
#1221 = AXIS2_PLACEMENT_3D('',#1222,#1223,#1224);
#1222 = CARTESIAN_POINT('',(34.016522432432,15.757153513514,-1.));
#1223 = DIRECTION('',(1.,0.,-0.));
#1224 = DIRECTION('',(0.,0.,1.));
#1225 = ADVANCED_FACE('',(#1226),#1232,.F.);
#1226 = FACE_BOUND('',#1227,.F.);
#1227 = EDGE_LOOP('',(#1228,#1229,#1230,#1231));
#1228 = ORIENTED_EDGE('',*,*,#542,.F.);
#1229 = ORIENTED_EDGE('',*,*,#1214,.F.);
#1230 = ORIENTED_EDGE('',*,*,#776,.T.);
#1231 = ORIENTED_EDGE('',*,*,#1197,.T.);
#1232 = CYLINDRICAL_SURFACE('',#1233,0.974153513514);
#1233 = AXIS2_PLACEMENT_3D('',#1234,#1235,#1236);
#1234 = CARTESIAN_POINT('',(33.042368918919,17.099846486486,-1.));
#1235 = DIRECTION('',(0.,0.,1.));
#1236 = DIRECTION('',(1.,0.,-0.));
#1237 = ADVANCED_FACE('',(#1238),#1244,.T.);
#1238 = FACE_BOUND('',#1239,.T.);
#1239 = EDGE_LOOP('',(#1240,#1241,#1242,#1243));
#1240 = ORIENTED_EDGE('',*,*,#615,.T.);
#1241 = ORIENTED_EDGE('',*,*,#633,.T.);
#1242 = ORIENTED_EDGE('',*,*,#801,.F.);
#1243 = ORIENTED_EDGE('',*,*,#590,.F.);
#1244 = CYLINDRICAL_SURFACE('',#1245,1.5);
#1245 = AXIS2_PLACEMENT_3D('',#1246,#1247,#1248);
#1246 = CARTESIAN_POINT('',(35.43,-23.,1.5));
#1247 = DIRECTION('',(-0.,1.,0.));
#1248 = DIRECTION('',(1.,0.,-0.));
#1249 = ADVANCED_FACE('',(#1250,#1256),#1390,.T.);
#1250 = FACE_BOUND('',#1251,.T.);
#1251 = EDGE_LOOP('',(#1252,#1253,#1254,#1255));
#1252 = ORIENTED_EDGE('',*,*,#941,.F.);
#1253 = ORIENTED_EDGE('',*,*,#893,.T.);
#1254 = ORIENTED_EDGE('',*,*,#917,.T.);
#1255 = ORIENTED_EDGE('',*,*,#965,.F.);
#1256 = FACE_BOUND('',#1257,.T.);
#1257 = EDGE_LOOP('',(#1258));
#1258 = ORIENTED_EDGE('',*,*,#1259,.F.);
#1259 = EDGE_CURVE('',#1260,#1260,#1262,.T.);
#1260 = VERTEX_POINT('',#1261);
#1261 = CARTESIAN_POINT('',(-21.23475,-8.159,1.998));
#1262 = B_SPLINE_CURVE_WITH_KNOTS('',6,(#1263,#1264,#1265,#1266,#1267,
    #1268,#1269,#1270,#1271,#1272,#1273,#1274,#1275,#1276,#1277,#1278,
    #1279,#1280,#1281,#1282,#1283,#1284,#1285,#1286,#1287,#1288,#1289,
    #1290,#1291,#1292,#1293,#1294,#1295,#1296,#1297,#1298,#1299,#1300,
    #1301,#1302,#1303,#1304,#1305,#1306,#1307,#1308,#1309,#1310,#1311,
    #1312,#1313,#1314,#1315,#1316,#1317,#1318,#1319,#1320,#1321,#1322,
    #1323,#1324,#1325,#1326,#1327,#1328,#1329,#1330,#1331,#1332,#1333,
    #1334,#1335,#1336,#1337,#1338,#1339,#1340,#1341,#1342,#1343,#1344,
    #1345,#1346,#1347,#1348,#1349,#1350,#1351,#1352,#1353,#1354,#1355,
    #1356,#1357,#1358,#1359,#1360,#1361,#1362,#1363,#1364,#1365,#1366,
    #1367,#1368,#1369,#1370,#1371,#1372,#1373,#1374,#1375,#1376,#1377,
    #1378,#1379,#1380,#1381,#1382,#1383,#1384,#1385,#1386,#1387,#1388,
    #1389),.UNSPECIFIED.,.T.,.F.,(7,5,5,5,5,5,5,5,5,5,5,5,5,5,5,5,5,5,5,
    5,5,5,5,5,5,7),(0.,7.604706293688E-02,0.116665755516,0.158902515378,
    0.186363838914,0.249996388607,0.294190266295,0.313628815399,
    0.341090283137,0.383327264791,0.423946170665,0.447473782134,
    0.50000079977,0.536921919923,0.552528595589,0.57605608204,
    0.616674772079,0.6589115293,0.686372851118,0.705811296932,
    0.750004939788,0.81363715136,0.841098328975,0.883334864406,
    0.923953341151,1.),.UNSPECIFIED.);
#1263 = CARTESIAN_POINT('',(-21.23475,-8.159,1.998));
#1264 = CARTESIAN_POINT('',(-21.42436540873,-8.159,1.998));
#1265 = CARTESIAN_POINT('',(-21.61403293531,-8.179005091533,1.998));
#1266 = CARTESIAN_POINT('',(-21.80103665707,-8.219033731339,1.998));
#1267 = CARTESIAN_POINT('',(-21.98289433124,-8.278417527567,1.998));
#1268 = CARTESIAN_POINT('',(-22.15734059961,-8.35606315896,1.998));
#1269 = CARTESIAN_POINT('',(-22.41051345181,-8.500769429842,1.998));
#1270 = CARTESIAN_POINT('',(-22.49598949022,-8.555919500624,1.998));
#1271 = CARTESIAN_POINT('',(-22.57850452031,-8.615609672534,1.998));
#1272 = CARTESIAN_POINT('',(-22.65780135895,-8.679588433519,1.998));
#1273 = CARTESIAN_POINT('',(-22.73365395452,-8.747587240301,1.998));
#1274 = CARTESIAN_POINT('',(-22.88095069296,-8.893923307861,1.998));
#1275 = CARTESIAN_POINT('',(-22.95209999956,-8.972565617067,1.998));
#1276 = CARTESIAN_POINT('',(-23.01909095167,-9.054940157763,1.998));
#1277 = CARTESIAN_POINT('',(-23.08173831306,-9.140724952074,1.998));
#1278 = CARTESIAN_POINT('',(-23.13988789661,-9.229593581395,1.998));
#1279 = CARTESIAN_POINT('',(-23.22821178821,-9.380792568851,1.998));
#1280 = CARTESIAN_POINT('',(-23.26105639926,-9.441531420854,1.998));
#1281 = CARTESIAN_POINT('',(-23.29191098065,-9.503346497258,1.998));
#1282 = CARTESIAN_POINT('',(-23.32074514756,-9.566148442475,1.998));
#1283 = CARTESIAN_POINT('',(-23.34753280456,-9.629848167324,1.998));
#1284 = CARTESIAN_POINT('',(-23.42953105648,-9.843834418438,1.998));
#1285 = CARTESIAN_POINT('',(-23.47570259868,-9.99765214196,1.998));
#1286 = CARTESIAN_POINT('',(-23.51049671941,-10.15471306033,1.998));
#1287 = CARTESIAN_POINT('',(-23.53374539684,-10.31392684813,1.998));
#1288 = CARTESIAN_POINT('',(-23.54537027027,-10.47421233049,1.998));
#1289 = CARTESIAN_POINT('',(-23.54537027027,-10.7458224866,1.998));
#1290 = CARTESIAN_POINT('',(-23.53976301115,-10.85714451917,1.998));
#1291 = CARTESIAN_POINT('',(-23.5285486298,-10.96810683599,1.998));
#1292 = CARTESIAN_POINT('',(-23.51174570863,-11.07834831197,1.998));
#1293 = CARTESIAN_POINT('',(-23.48939271924,-11.18750611706,1.998));
#1294 = CARTESIAN_POINT('',(-23.44930269169,-11.34259169944,1.998));
#1295 = CARTESIAN_POINT('',(-23.43599378492,-11.38968726537,1.998));
#1296 = CARTESIAN_POINT('',(-23.42162783915,-11.43647146839,1.998));
#1297 = CARTESIAN_POINT('',(-23.40621084405,-11.48291309056,1.998));
#1298 = CARTESIAN_POINT('',(-23.38974968552,-11.52898080003,1.998));
#1299 = CARTESIAN_POINT('',(-23.34753280456,-11.63915183267,1.998));
#1300 = CARTESIAN_POINT('',(-23.32074514756,-11.70285155752,1.998));
#1301 = CARTESIAN_POINT('',(-23.29191098065,-11.76565350274,1.998));
#1302 = CARTESIAN_POINT('',(-23.26105639926,-11.82746857914,1.998));
#1303 = CARTESIAN_POINT('',(-23.22821178821,-11.88820743114,1.998));
#1304 = CARTESIAN_POINT('',(-23.13988789661,-12.0394064186,1.998));
#1305 = CARTESIAN_POINT('',(-23.08173831306,-12.12827504792,1.998));
#1306 = CARTESIAN_POINT('',(-23.01909095167,-12.21405984223,1.998));
#1307 = CARTESIAN_POINT('',(-22.95209999956,-12.29643438293,1.998));
#1308 = CARTESIAN_POINT('',(-22.88095069296,-12.37507669213,1.998));
#1309 = CARTESIAN_POINT('',(-22.73365395452,-12.52141275969,1.998));
#1310 = CARTESIAN_POINT('',(-22.65780135895,-12.58941156648,1.998));
#1311 = CARTESIAN_POINT('',(-22.57850452031,-12.65339032746,1.998));
#1312 = CARTESIAN_POINT('',(-22.49598949022,-12.71308049937,1.998));
#1313 = CARTESIAN_POINT('',(-22.41051345181,-12.76823057015,1.998));
#1314 = CARTESIAN_POINT('',(-22.27131175202,-12.84779423072,1.998));
#1315 = CARTESIAN_POINT('',(-22.21935952729,-12.87537692208,1.998));
#1316 = CARTESIAN_POINT('',(-22.16656788549,-12.90131544763,1.998));
#1317 = CARTESIAN_POINT('',(-22.11299653941,-12.9255687577,1.998));
#1318 = CARTESIAN_POINT('',(-22.0587084019,-12.94809931039,1.998));
#1319 = CARTESIAN_POINT('',(-21.88111488465,-13.01525192831,1.998));
#1320 = CARTESIAN_POINT('',(-21.75520638645,-13.05287819879,1.998));
#1321 = CARTESIAN_POINT('',(-21.62679815052,-13.08136890153,1.998));
#1322 = CARTESIAN_POINT('',(-21.49668824859,-13.10045623647,1.998));
#1323 = CARTESIAN_POINT('',(-21.36571446556,-13.11,1.998));
#1324 = CARTESIAN_POINT('',(-21.14269537769,-13.11,1.998));
#1325 = CARTESIAN_POINT('',(-21.05063899102,-13.10528496638,1.998));
#1326 = CARTESIAN_POINT('',(-20.95888053083,-13.09585490458,1.998));
#1327 = CARTESIAN_POINT('',(-20.8677134125,-13.0817437715,1.998));
#1328 = CARTESIAN_POINT('',(-20.7774239656,-13.06301788859,1.998));
#1329 = CARTESIAN_POINT('',(-20.6506136746,-13.02994923871,1.998));
#1330 = CARTESIAN_POINT('',(-20.61314294764,-13.01931683011,1.998));
#1331 = CARTESIAN_POINT('',(-20.57589922305,-13.00788442315,1.998));
#1332 = CARTESIAN_POINT('',(-20.53890278431,-12.99566017314,1.998));
#1333 = CARTESIAN_POINT('',(-20.50217341807,-12.98265309668,1.998));
#1334 = CARTESIAN_POINT('',(-20.41079159809,-12.94809931039,1.998));
#1335 = CARTESIAN_POINT('',(-20.35650346059,-12.9255687577,1.998));
#1336 = CARTESIAN_POINT('',(-20.3029321145,-12.90131544763,1.998));
#1337 = CARTESIAN_POINT('',(-20.2501404727,-12.87537692208,1.998));
#1338 = CARTESIAN_POINT('',(-20.19818824798,-12.84779423072,1.998));
#1339 = CARTESIAN_POINT('',(-20.05898654818,-12.76823057015,1.998));
#1340 = CARTESIAN_POINT('',(-19.97351050977,-12.71308049937,1.998));
#1341 = CARTESIAN_POINT('',(-19.89099547968,-12.65339032746,1.998));
#1342 = CARTESIAN_POINT('',(-19.81169864104,-12.58941156648,1.998));
#1343 = CARTESIAN_POINT('',(-19.73584604547,-12.5214127597,1.998));
#1344 = CARTESIAN_POINT('',(-19.58854930703,-12.37507669213,1.998));
#1345 = CARTESIAN_POINT('',(-19.51740000043,-12.29643438293,1.998));
#1346 = CARTESIAN_POINT('',(-19.45040904832,-12.21405984223,1.998));
#1347 = CARTESIAN_POINT('',(-19.38776168693,-12.12827504792,1.998));
#1348 = CARTESIAN_POINT('',(-19.32961210338,-12.0394064186,1.998));
#1349 = CARTESIAN_POINT('',(-19.24128821178,-11.88820743114,1.998));
#1350 = CARTESIAN_POINT('',(-19.20844360073,-11.82746857914,1.998));
#1351 = CARTESIAN_POINT('',(-19.17758901934,-11.76565350274,1.998));
#1352 = CARTESIAN_POINT('',(-19.14875485243,-11.70285155752,1.998));
#1353 = CARTESIAN_POINT('',(-19.12196719543,-11.63915183267,1.998));
#1354 = CARTESIAN_POINT('',(-19.07975031447,-11.52898080003,1.998));
#1355 = CARTESIAN_POINT('',(-19.06328915594,-11.48291309056,1.998));
#1356 = CARTESIAN_POINT('',(-19.04787216085,-11.43647146839,1.998));
#1357 = CARTESIAN_POINT('',(-19.03350621507,-11.38968726537,1.998));
#1358 = CARTESIAN_POINT('',(-19.0201973083,-11.34259169944,1.998));
#1359 = CARTESIAN_POINT('',(-18.98010728075,-11.18750611706,1.998));
#1360 = CARTESIAN_POINT('',(-18.95775429136,-11.07834831198,1.998));
#1361 = CARTESIAN_POINT('',(-18.94095137019,-10.96810683599,1.998));
#1362 = CARTESIAN_POINT('',(-18.92973698884,-10.85714451917,1.998));
#1363 = CARTESIAN_POINT('',(-18.92412972973,-10.7458224866,1.998));
#1364 = CARTESIAN_POINT('',(-18.92412972973,-10.47421233049,1.998));
#1365 = CARTESIAN_POINT('',(-18.93575460315,-10.31392684813,1.998));
#1366 = CARTESIAN_POINT('',(-18.95900328058,-10.15471306034,1.998));
#1367 = CARTESIAN_POINT('',(-18.99379740131,-9.997652141961,1.998));
#1368 = CARTESIAN_POINT('',(-19.03996894351,-9.843834418439,1.998));
#1369 = CARTESIAN_POINT('',(-19.12196719543,-9.629848167324,1.998));
#1370 = CARTESIAN_POINT('',(-19.14875485243,-9.566148442475,1.998));
#1371 = CARTESIAN_POINT('',(-19.17758901934,-9.503346497259,1.998));
#1372 = CARTESIAN_POINT('',(-19.20844360073,-9.441531420854,1.998));
#1373 = CARTESIAN_POINT('',(-19.24128821178,-9.380792568852,1.998));
#1374 = CARTESIAN_POINT('',(-19.32961210338,-9.229593581395,1.998));
#1375 = CARTESIAN_POINT('',(-19.38776168693,-9.140724952074,1.998));
#1376 = CARTESIAN_POINT('',(-19.45040904832,-9.054940157763,1.998));
#1377 = CARTESIAN_POINT('',(-19.51740000043,-8.972565617067,1.998));
#1378 = CARTESIAN_POINT('',(-19.58854930703,-8.893923307861,1.998));
#1379 = CARTESIAN_POINT('',(-19.73584604547,-8.747587240301,1.998));
#1380 = CARTESIAN_POINT('',(-19.81169864104,-8.679588433519,1.998));
#1381 = CARTESIAN_POINT('',(-19.89099547968,-8.615609672534,1.998));
#1382 = CARTESIAN_POINT('',(-19.97351050977,-8.555919500625,1.998));
#1383 = CARTESIAN_POINT('',(-20.05898654818,-8.500769429842,1.998));
#1384 = CARTESIAN_POINT('',(-20.31215940038,-8.35606315896,1.998));
#1385 = CARTESIAN_POINT('',(-20.48660566875,-8.278417527567,1.998));
#1386 = CARTESIAN_POINT('',(-20.66846334292,-8.219033731339,1.998));
#1387 = CARTESIAN_POINT('',(-20.85546706468,-8.179005091533,1.998));
#1388 = CARTESIAN_POINT('',(-21.04513459126,-8.159,1.998));
#1389 = CARTESIAN_POINT('',(-21.23475,-8.159,1.998));
#1390 = PLANE('',#1391);
#1391 = AXIS2_PLACEMENT_3D('',#1392,#1393,#1394);
#1392 = CARTESIAN_POINT('',(-27.23837027027,-17.067,1.998));
#1393 = DIRECTION('',(0.,0.,1.));
#1394 = DIRECTION('',(1.,0.,-0.));
#1395 = ADVANCED_FACE('',(#1396),#1399,.F.);
#1396 = FACE_BOUND('',#1397,.F.);
#1397 = EDGE_LOOP('',(#1398));
#1398 = ORIENTED_EDGE('',*,*,#1049,.T.);
#1399 = PLANE('',#1400);
#1400 = AXIS2_PLACEMENT_3D('',#1401,#1402,#1403);
#1401 = CARTESIAN_POINT('',(23.08125,-3.696576503761,0.998));
#1402 = DIRECTION('',(-0.,-0.,-1.));
#1403 = DIRECTION('',(-1.,0.,0.));
#1404 = ADVANCED_FACE('',(#1405),#1408,.F.);
#1405 = FACE_BOUND('',#1406,.F.);
#1406 = EDGE_LOOP('',(#1407));
#1407 = ORIENTED_EDGE('',*,*,#1077,.T.);
#1408 = PLANE('',#1409);
#1409 = AXIS2_PLACEMENT_3D('',#1410,#1411,#1412);
#1410 = CARTESIAN_POINT('',(27.6975,-3.696576503761,0.998));
#1411 = DIRECTION('',(-0.,-0.,-1.));
#1412 = DIRECTION('',(-1.,0.,0.));
#1413 = ADVANCED_FACE('',(#1414),#1433,.F.);
#1414 = FACE_BOUND('',#1415,.F.);
#1415 = EDGE_LOOP('',(#1416,#1425,#1431,#1432));
#1416 = ORIENTED_EDGE('',*,*,#1417,.F.);
#1417 = EDGE_CURVE('',#1418,#1418,#1420,.T.);
#1418 = VERTEX_POINT('',#1419);
#1419 = CARTESIAN_POINT('',(-21.23475,-8.159,0.998));
#1420 = ELLIPSE('',#1421,2.4755,2.31062027027);
#1421 = AXIS2_PLACEMENT_3D('',#1422,#1423,#1424);
#1422 = CARTESIAN_POINT('',(-21.23475,-10.6345,0.998));
#1423 = DIRECTION('',(0.,0.,-1.));
#1424 = DIRECTION('',(0.,1.,0.));
#1425 = ORIENTED_EDGE('',*,*,#1426,.T.);
#1426 = EDGE_CURVE('',#1418,#1260,#1427,.T.);
#1427 = LINE('',#1428,#1429);
#1428 = CARTESIAN_POINT('',(-21.23475,-8.159,0.998));
#1429 = VECTOR('',#1430,1.);
#1430 = DIRECTION('',(0.,0.,1.));
#1431 = ORIENTED_EDGE('',*,*,#1259,.F.);
#1432 = ORIENTED_EDGE('',*,*,#1426,.F.);
#1433 = SURFACE_OF_LINEAR_EXTRUSION('',#1434,#1439);
#1434 = ELLIPSE('',#1435,2.4755,2.31062027027);
#1435 = AXIS2_PLACEMENT_3D('',#1436,#1437,#1438);
#1436 = CARTESIAN_POINT('',(-21.23475,-10.6345,0.998));
#1437 = DIRECTION('',(0.,0.,-1.));
#1438 = DIRECTION('',(0.,1.,0.));
#1439 = VECTOR('',#1440,1.);
#1440 = DIRECTION('',(-0.,-0.,-1.));
#1441 = ADVANCED_FACE('',(#1442),#1445,.F.);
#1442 = FACE_BOUND('',#1443,.F.);
#1443 = EDGE_LOOP('',(#1444));
#1444 = ORIENTED_EDGE('',*,*,#1417,.T.);
#1445 = PLANE('',#1446);
#1446 = AXIS2_PLACEMENT_3D('',#1447,#1448,#1449);
#1447 = CARTESIAN_POINT('',(-21.23475,-10.61300582948,0.998));
#1448 = DIRECTION('',(-0.,-0.,-1.));
#1449 = DIRECTION('',(-1.,0.,0.));
#1450 = ( GEOMETRIC_REPRESENTATION_CONTEXT(3) 
GLOBAL_UNCERTAINTY_ASSIGNED_CONTEXT((#1454)) 
GLOBAL_UNIT_ASSIGNED_CONTEXT((#1451,#1452,#1453)) REPRESENTATION_CONTEXT
('Context #1','3D Context with UNIT and UNCERTAINTY') );
#1451 = ( LENGTH_UNIT() NAMED_UNIT(*) SI_UNIT(.MILLI.,.METRE.) );
#1452 = ( NAMED_UNIT(*) PLANE_ANGLE_UNIT() SI_UNIT($,.RADIAN.) );
#1453 = ( NAMED_UNIT(*) SI_UNIT($,.STERADIAN.) SOLID_ANGLE_UNIT() );
#1454 = UNCERTAINTY_MEASURE_WITH_UNIT(LENGTH_MEASURE(5.E-07),#1451,
  'distance_accuracy_value','confusion accuracy');
#1455 = PRODUCT_RELATED_PRODUCT_CATEGORY('part',$,(#7));
ENDSEC;
END-ISO-10303-21;
